<svg width="164" height="32" viewBox="0 0 164 32" fill="none" xmlns="http://www.w3.org/2000/svg">
<g filter="url(#filter0_d_1_2)">
<mask id="path-1-outside-1_1_2" maskUnits="userSpaceOnUse" x="3" y="-1" width="158" height="26" fill="black">
<rect fill="white" x="3" y="-1" width="158" height="26"/>
<path d="M10.296 19.24C9.144 19.24 8.152 19.048 7.32 18.664C6.504 18.28 5.872 17.728 5.424 17.008C4.976 16.288 4.744 15.432 4.728 14.44H6.888C6.888 15.32 7.184 16.016 7.776 16.528C8.384 17.04 9.224 17.296 10.296 17.296C11.304 17.296 12.088 17.048 12.648 16.552C13.224 16.056 13.512 15.368 13.512 14.488C13.512 13.784 13.32 13.168 12.936 12.64C12.568 12.112 12.032 11.744 11.328 11.536L8.952 10.792C7.752 10.424 6.824 9.808 6.168 8.944C5.528 8.08 5.208 7.064 5.208 5.896C5.208 4.952 5.416 4.136 5.832 3.448C6.264 2.744 6.864 2.2 7.632 1.816C8.4 1.416 9.304 1.216 10.344 1.216C11.88 1.216 13.112 1.648 14.04 2.512C14.968 3.36 15.44 4.496 15.456 5.92H13.296C13.296 5.056 13.032 4.384 12.504 3.904C11.992 3.408 11.264 3.16 10.32 3.16C9.392 3.16 8.664 3.384 8.136 3.832C7.624 4.28 7.368 4.904 7.368 5.704C7.368 6.424 7.56 7.048 7.944 7.576C8.328 8.104 8.88 8.48 9.6 8.704L12 9.472C13.168 9.84 14.072 10.464 14.712 11.344C15.352 12.224 15.672 13.256 15.672 14.44C15.672 15.4 15.448 16.24 15 16.96C14.552 17.68 13.92 18.24 13.104 18.64C12.304 19.04 11.368 19.24 10.296 19.24ZM19.4306 19V17.032H24.1106V7.768H20.0306V5.8H26.2706V17.032H30.7106V19H19.4306ZM24.9506 3.424C24.4226 3.424 24.0066 3.288 23.7026 3.016C23.3986 2.744 23.2466 2.376 23.2466 1.912C23.2466 1.432 23.3986 1.056 23.7026 0.783998C24.0066 0.495999 24.4226 0.352 24.9506 0.352C25.4786 0.352 25.8946 0.495999 26.1986 0.783998C26.5026 1.056 26.6546 1.432 26.6546 1.912C26.6546 2.376 26.5026 2.744 26.1986 3.016C25.8946 3.288 25.4786 3.424 24.9506 3.424ZM33.3652 19V5.8H35.2613V7.384H35.6933L35.3573 7.96C35.3573 7.224 35.5493 6.64 35.9333 6.208C36.3333 5.776 36.8693 5.56 37.5413 5.56C38.2773 5.56 38.8453 5.832 39.2453 6.376C39.6453 6.92 39.8453 7.688 39.8453 8.68L39.1973 7.384H40.2053L39.7493 7.96C39.7493 7.224 39.9493 6.64 40.3493 6.208C40.7653 5.776 41.3093 5.56 41.9813 5.56C42.8133 5.56 43.4533 5.872 43.9012 6.496C44.3653 7.12 44.5973 7.944 44.5973 8.968V19H42.6053V8.944C42.6053 8.4 42.4853 7.976 42.2453 7.672C42.0213 7.368 41.6853 7.216 41.2373 7.216C40.8053 7.216 40.4613 7.368 40.2053 7.672C39.9653 7.96 39.8453 8.376 39.8453 8.92V19H38.1172V8.944C38.1172 8.384 37.9893 7.96 37.7333 7.672C37.4933 7.368 37.1493 7.216 36.7013 7.216C36.2533 7.216 35.9173 7.368 35.6933 7.672C35.4693 7.96 35.3573 8.376 35.3573 8.92V19H33.3652ZM48.3799 23.32V5.8H50.5399V8.32H50.9719L50.5399 8.824C50.5399 7.816 50.8679 7.024 51.5239 6.448C52.1959 5.856 53.0759 5.56 54.1639 5.56C55.4919 5.56 56.5479 6 57.3319 6.88C58.1319 7.744 58.5319 8.936 58.5319 10.456V14.32C58.5319 15.328 58.3479 16.2 57.9799 16.936C57.6279 17.672 57.1239 18.24 56.4679 18.64C55.8279 19.04 55.0599 19.24 54.1639 19.24C53.0919 19.24 52.2199 18.944 51.5479 18.352C50.8759 17.76 50.5399 16.968 50.5399 15.976L50.9719 16.48H50.4919L50.5399 19.48V23.32H48.3799ZM53.4439 17.368C54.3559 17.368 55.0679 17.096 55.5799 16.552C56.1079 16.008 56.3719 15.224 56.3719 14.2V10.6C56.3719 9.576 56.1079 8.792 55.5799 8.248C55.0679 7.704 54.3559 7.432 53.4439 7.432C52.5639 7.432 51.8599 7.712 51.3319 8.272C50.8039 8.832 50.5399 9.608 50.5399 10.6V14.2C50.5399 15.192 50.8039 15.968 51.3319 16.528C51.8599 17.088 52.5639 17.368 53.4439 17.368ZM69.5625 19C68.7945 19 68.1225 18.848 67.5465 18.544C66.9705 18.24 66.5225 17.808 66.2025 17.248C65.8825 16.688 65.7225 16.032 65.7225 15.28V3.448H61.2825V1.48H67.8825V15.28C67.8825 15.824 68.0345 16.256 68.3385 16.576C68.6425 16.88 69.0505 17.032 69.5625 17.032H73.7625V19H69.5625ZM82.1531 19.24C81.1131 19.24 80.2011 19.032 79.4171 18.616C78.6491 18.2 78.0491 17.616 77.6171 16.864C77.2011 16.096 76.9931 15.208 76.9931 14.2V10.6C76.9931 9.576 77.2011 8.688 77.6171 7.936C78.0491 7.184 78.6491 6.6 79.4171 6.184C80.2011 5.768 81.1131 5.56 82.1531 5.56C83.1931 5.56 84.0971 5.768 84.8651 6.184C85.6491 6.6 86.2491 7.184 86.6651 7.936C87.0971 8.688 87.3131 9.576 87.3131 10.6V12.928H79.1051V14.2C79.1051 15.24 79.3691 16.04 79.8971 16.6C80.4251 17.144 81.1771 17.416 82.1531 17.416C82.9851 17.416 83.6571 17.272 84.1691 16.984C84.6811 16.68 84.9931 16.232 85.1051 15.64H87.2651C87.1211 16.744 86.5771 17.624 85.6331 18.28C84.7051 18.92 83.5451 19.24 82.1531 19.24ZM85.2011 11.488V10.6C85.2011 9.56 84.9371 8.76 84.4091 8.2C83.8971 7.64 83.1451 7.36 82.1531 7.36C81.1771 7.36 80.4251 7.64 79.8971 8.2C79.3691 8.76 79.1051 9.56 79.1051 10.6V11.296H85.3691L85.2011 11.488ZM111.03 19.24C109.878 19.24 108.886 19.048 108.054 18.664C107.238 18.28 106.606 17.728 106.158 17.008C105.71 16.288 105.478 15.432 105.462 14.44H107.622C107.622 15.32 107.918 16.016 108.51 16.528C109.118 17.04 109.958 17.296 111.03 17.296C112.038 17.296 112.822 17.048 113.382 16.552C113.958 16.056 114.246 15.368 114.246 14.488C114.246 13.784 114.054 13.168 113.67 12.64C113.302 12.112 112.766 11.744 112.062 11.536L109.686 10.792C108.486 10.424 107.558 9.808 106.902 8.944C106.262 8.08 105.942 7.064 105.942 5.896C105.942 4.952 106.15 4.136 106.566 3.448C106.998 2.744 107.598 2.2 108.366 1.816C109.134 1.416 110.038 1.216 111.078 1.216C112.614 1.216 113.846 1.648 114.774 2.512C115.702 3.36 116.174 4.496 116.19 5.92H114.03C114.03 5.056 113.766 4.384 113.238 3.904C112.726 3.408 111.998 3.16 111.054 3.16C110.126 3.16 109.398 3.384 108.87 3.832C108.358 4.28 108.102 4.904 108.102 5.704C108.102 6.424 108.294 7.048 108.678 7.576C109.062 8.104 109.614 8.48 110.334 8.704L112.734 9.472C113.902 9.84 114.806 10.464 115.446 11.344C116.086 12.224 116.406 13.256 116.406 14.44C116.406 15.4 116.182 16.24 115.734 16.96C115.286 17.68 114.654 18.24 113.838 18.64C113.038 19.04 112.102 19.24 111.03 19.24ZM120.333 19V1.48H122.493V5.8V8.32H122.949L122.493 8.824C122.493 7.784 122.805 6.984 123.429 6.424C124.053 5.848 124.917 5.56 126.021 5.56C127.349 5.56 128.405 5.968 129.189 6.784C129.973 7.6 130.365 8.712 130.365 10.12V19H128.205V10.36C128.205 9.416 127.949 8.688 127.437 8.176C126.941 7.648 126.261 7.384 125.397 7.384C124.501 7.384 123.789 7.664 123.261 8.224C122.749 8.784 122.493 9.576 122.493 10.6V19H120.333ZM139.716 19.192C138.66 19.192 137.748 18.992 136.98 18.592C136.212 18.192 135.612 17.616 135.18 16.864C134.764 16.096 134.556 15.192 134.556 14.152V10.648C134.556 9.592 134.764 8.688 135.18 7.936C135.612 7.184 136.212 6.608 136.98 6.208C137.748 5.808 138.66 5.608 139.716 5.608C140.772 5.608 141.684 5.808 142.452 6.208C143.22 6.608 143.812 7.184 144.228 7.936C144.66 8.688 144.876 9.584 144.876 10.624V14.152C144.876 15.192 144.66 16.096 144.228 16.864C143.812 17.616 143.22 18.192 142.452 18.592C141.684 18.992 140.772 19.192 139.716 19.192ZM139.716 17.272C140.66 17.272 141.396 17.008 141.924 16.48C142.452 15.952 142.716 15.176 142.716 14.152V10.648C142.716 9.624 142.452 8.848 141.924 8.32C141.396 7.792 140.66 7.528 139.716 7.528C138.788 7.528 138.052 7.792 137.508 8.32C136.98 8.848 136.716 9.624 136.716 10.648V14.152C136.716 15.176 136.98 15.952 137.508 16.48C138.052 17.008 138.788 17.272 139.716 17.272ZM149.114 23.32V5.8H151.274V8.32H151.706L151.274 8.824C151.274 7.816 151.602 7.024 152.258 6.448C152.93 5.856 153.81 5.56 154.898 5.56C156.226 5.56 157.282 6 158.066 6.88C158.866 7.744 159.266 8.936 159.266 10.456V14.32C159.266 15.328 159.082 16.2 158.714 16.936C158.362 17.672 157.858 18.24 157.202 18.64C156.562 19.04 155.794 19.24 154.898 19.24C153.826 19.24 152.954 18.944 152.282 18.352C151.61 17.76 151.274 16.968 151.274 15.976L151.706 16.48H151.226L151.274 19.48V23.32H149.114ZM154.178 17.368C155.09 17.368 155.802 17.096 156.314 16.552C156.842 16.008 157.106 15.224 157.106 14.2V10.6C157.106 9.576 156.842 8.792 156.314 8.248C155.802 7.704 155.09 7.432 154.178 7.432C153.298 7.432 152.594 7.712 152.066 8.272C151.538 8.832 151.274 9.608 151.274 10.6V14.2C151.274 15.192 151.538 15.968 152.066 16.528C152.594 17.088 153.298 17.368 154.178 17.368Z"/>
</mask>
<path d="M10.296 19.24C9.144 19.24 8.152 19.048 7.32 18.664C6.504 18.28 5.872 17.728 5.424 17.008C4.976 16.288 4.744 15.432 4.728 14.44H6.888C6.888 15.32 7.184 16.016 7.776 16.528C8.384 17.04 9.224 17.296 10.296 17.296C11.304 17.296 12.088 17.048 12.648 16.552C13.224 16.056 13.512 15.368 13.512 14.488C13.512 13.784 13.32 13.168 12.936 12.64C12.568 12.112 12.032 11.744 11.328 11.536L8.952 10.792C7.752 10.424 6.824 9.808 6.168 8.944C5.528 8.08 5.208 7.064 5.208 5.896C5.208 4.952 5.416 4.136 5.832 3.448C6.264 2.744 6.864 2.2 7.632 1.816C8.4 1.416 9.304 1.216 10.344 1.216C11.88 1.216 13.112 1.648 14.04 2.512C14.968 3.36 15.44 4.496 15.456 5.92H13.296C13.296 5.056 13.032 4.384 12.504 3.904C11.992 3.408 11.264 3.16 10.32 3.16C9.392 3.16 8.664 3.384 8.136 3.832C7.624 4.28 7.368 4.904 7.368 5.704C7.368 6.424 7.56 7.048 7.944 7.576C8.328 8.104 8.88 8.48 9.6 8.704L12 9.472C13.168 9.84 14.072 10.464 14.712 11.344C15.352 12.224 15.672 13.256 15.672 14.44C15.672 15.4 15.448 16.24 15 16.96C14.552 17.68 13.92 18.24 13.104 18.64C12.304 19.04 11.368 19.24 10.296 19.24ZM19.4306 19V17.032H24.1106V7.768H20.0306V5.8H26.2706V17.032H30.7106V19H19.4306ZM24.9506 3.424C24.4226 3.424 24.0066 3.288 23.7026 3.016C23.3986 2.744 23.2466 2.376 23.2466 1.912C23.2466 1.432 23.3986 1.056 23.7026 0.783998C24.0066 0.495999 24.4226 0.352 24.9506 0.352C25.4786 0.352 25.8946 0.495999 26.1986 0.783998C26.5026 1.056 26.6546 1.432 26.6546 1.912C26.6546 2.376 26.5026 2.744 26.1986 3.016C25.8946 3.288 25.4786 3.424 24.9506 3.424ZM33.3652 19V5.8H35.2613V7.384H35.6933L35.3573 7.96C35.3573 7.224 35.5493 6.64 35.9333 6.208C36.3333 5.776 36.8693 5.56 37.5413 5.56C38.2773 5.56 38.8453 5.832 39.2453 6.376C39.6453 6.92 39.8453 7.688 39.8453 8.68L39.1973 7.384H40.2053L39.7493 7.96C39.7493 7.224 39.9493 6.64 40.3493 6.208C40.7653 5.776 41.3093 5.56 41.9813 5.56C42.8133 5.56 43.4533 5.872 43.9012 6.496C44.3653 7.12 44.5973 7.944 44.5973 8.968V19H42.6053V8.944C42.6053 8.4 42.4853 7.976 42.2453 7.672C42.0213 7.368 41.6853 7.216 41.2373 7.216C40.8053 7.216 40.4613 7.368 40.2053 7.672C39.9653 7.96 39.8453 8.376 39.8453 8.92V19H38.1172V8.944C38.1172 8.384 37.9893 7.96 37.7333 7.672C37.4933 7.368 37.1493 7.216 36.7013 7.216C36.2533 7.216 35.9173 7.368 35.6933 7.672C35.4693 7.96 35.3573 8.376 35.3573 8.92V19H33.3652ZM48.3799 23.32V5.8H50.5399V8.32H50.9719L50.5399 8.824C50.5399 7.816 50.8679 7.024 51.5239 6.448C52.1959 5.856 53.0759 5.56 54.1639 5.56C55.4919 5.56 56.5479 6 57.3319 6.88C58.1319 7.744 58.5319 8.936 58.5319 10.456V14.32C58.5319 15.328 58.3479 16.2 57.9799 16.936C57.6279 17.672 57.1239 18.24 56.4679 18.64C55.8279 19.04 55.0599 19.24 54.1639 19.24C53.0919 19.24 52.2199 18.944 51.5479 18.352C50.8759 17.76 50.5399 16.968 50.5399 15.976L50.9719 16.48H50.4919L50.5399 19.48V23.32H48.3799ZM53.4439 17.368C54.3559 17.368 55.0679 17.096 55.5799 16.552C56.1079 16.008 56.3719 15.224 56.3719 14.2V10.6C56.3719 9.576 56.1079 8.792 55.5799 8.248C55.0679 7.704 54.3559 7.432 53.4439 7.432C52.5639 7.432 51.8599 7.712 51.3319 8.272C50.8039 8.832 50.5399 9.608 50.5399 10.6V14.2C50.5399 15.192 50.8039 15.968 51.3319 16.528C51.8599 17.088 52.5639 17.368 53.4439 17.368ZM69.5625 19C68.7945 19 68.1225 18.848 67.5465 18.544C66.9705 18.24 66.5225 17.808 66.2025 17.248C65.8825 16.688 65.7225 16.032 65.7225 15.28V3.448H61.2825V1.48H67.8825V15.28C67.8825 15.824 68.0345 16.256 68.3385 16.576C68.6425 16.88 69.0505 17.032 69.5625 17.032H73.7625V19H69.5625ZM82.1531 19.24C81.1131 19.24 80.2011 19.032 79.4171 18.616C78.6491 18.2 78.0491 17.616 77.6171 16.864C77.2011 16.096 76.9931 15.208 76.9931 14.2V10.6C76.9931 9.576 77.2011 8.688 77.6171 7.936C78.0491 7.184 78.6491 6.6 79.4171 6.184C80.2011 5.768 81.1131 5.56 82.1531 5.56C83.1931 5.56 84.0971 5.768 84.8651 6.184C85.6491 6.6 86.2491 7.184 86.6651 7.936C87.0971 8.688 87.3131 9.576 87.3131 10.6V12.928H79.1051V14.2C79.1051 15.24 79.3691 16.04 79.8971 16.6C80.4251 17.144 81.1771 17.416 82.1531 17.416C82.9851 17.416 83.6571 17.272 84.1691 16.984C84.6811 16.68 84.9931 16.232 85.1051 15.64H87.2651C87.1211 16.744 86.5771 17.624 85.6331 18.28C84.7051 18.92 83.5451 19.24 82.1531 19.24ZM85.2011 11.488V10.6C85.2011 9.56 84.9371 8.76 84.4091 8.2C83.8971 7.64 83.1451 7.36 82.1531 7.36C81.1771 7.36 80.4251 7.64 79.8971 8.2C79.3691 8.76 79.1051 9.56 79.1051 10.6V11.296H85.3691L85.2011 11.488ZM111.03 19.24C109.878 19.24 108.886 19.048 108.054 18.664C107.238 18.28 106.606 17.728 106.158 17.008C105.71 16.288 105.478 15.432 105.462 14.44H107.622C107.622 15.32 107.918 16.016 108.51 16.528C109.118 17.04 109.958 17.296 111.03 17.296C112.038 17.296 112.822 17.048 113.382 16.552C113.958 16.056 114.246 15.368 114.246 14.488C114.246 13.784 114.054 13.168 113.67 12.64C113.302 12.112 112.766 11.744 112.062 11.536L109.686 10.792C108.486 10.424 107.558 9.808 106.902 8.944C106.262 8.08 105.942 7.064 105.942 5.896C105.942 4.952 106.15 4.136 106.566 3.448C106.998 2.744 107.598 2.2 108.366 1.816C109.134 1.416 110.038 1.216 111.078 1.216C112.614 1.216 113.846 1.648 114.774 2.512C115.702 3.36 116.174 4.496 116.19 5.92H114.03C114.03 5.056 113.766 4.384 113.238 3.904C112.726 3.408 111.998 3.16 111.054 3.16C110.126 3.16 109.398 3.384 108.87 3.832C108.358 4.28 108.102 4.904 108.102 5.704C108.102 6.424 108.294 7.048 108.678 7.576C109.062 8.104 109.614 8.48 110.334 8.704L112.734 9.472C113.902 9.84 114.806 10.464 115.446 11.344C116.086 12.224 116.406 13.256 116.406 14.44C116.406 15.4 116.182 16.24 115.734 16.96C115.286 17.68 114.654 18.24 113.838 18.64C113.038 19.04 112.102 19.24 111.03 19.24ZM120.333 19V1.48H122.493V5.8V8.32H122.949L122.493 8.824C122.493 7.784 122.805 6.984 123.429 6.424C124.053 5.848 124.917 5.56 126.021 5.56C127.349 5.56 128.405 5.968 129.189 6.784C129.973 7.6 130.365 8.712 130.365 10.12V19H128.205V10.36C128.205 9.416 127.949 8.688 127.437 8.176C126.941 7.648 126.261 7.384 125.397 7.384C124.501 7.384 123.789 7.664 123.261 8.224C122.749 8.784 122.493 9.576 122.493 10.6V19H120.333ZM139.716 19.192C138.66 19.192 137.748 18.992 136.98 18.592C136.212 18.192 135.612 17.616 135.18 16.864C134.764 16.096 134.556 15.192 134.556 14.152V10.648C134.556 9.592 134.764 8.688 135.18 7.936C135.612 7.184 136.212 6.608 136.98 6.208C137.748 5.808 138.66 5.608 139.716 5.608C140.772 5.608 141.684 5.808 142.452 6.208C143.22 6.608 143.812 7.184 144.228 7.936C144.66 8.688 144.876 9.584 144.876 10.624V14.152C144.876 15.192 144.66 16.096 144.228 16.864C143.812 17.616 143.22 18.192 142.452 18.592C141.684 18.992 140.772 19.192 139.716 19.192ZM139.716 17.272C140.66 17.272 141.396 17.008 141.924 16.48C142.452 15.952 142.716 15.176 142.716 14.152V10.648C142.716 9.624 142.452 8.848 141.924 8.32C141.396 7.792 140.66 7.528 139.716 7.528C138.788 7.528 138.052 7.792 137.508 8.32C136.98 8.848 136.716 9.624 136.716 10.648V14.152C136.716 15.176 136.98 15.952 137.508 16.48C138.052 17.008 138.788 17.272 139.716 17.272ZM149.114 23.32V5.8H151.274V8.32H151.706L151.274 8.824C151.274 7.816 151.602 7.024 152.258 6.448C152.93 5.856 153.81 5.56 154.898 5.56C156.226 5.56 157.282 6 158.066 6.88C158.866 7.744 159.266 8.936 159.266 10.456V14.32C159.266 15.328 159.082 16.2 158.714 16.936C158.362 17.672 157.858 18.24 157.202 18.64C156.562 19.04 155.794 19.24 154.898 19.24C153.826 19.24 152.954 18.944 152.282 18.352C151.61 17.76 151.274 16.968 151.274 15.976L151.706 16.48H151.226L151.274 19.48V23.32H149.114ZM154.178 17.368C155.09 17.368 155.802 17.096 156.314 16.552C156.842 16.008 157.106 15.224 157.106 14.2V10.6C157.106 9.576 156.842 8.792 156.314 8.248C155.802 7.704 155.09 7.432 154.178 7.432C153.298 7.432 152.594 7.712 152.066 8.272C151.538 8.832 151.274 9.608 151.274 10.6V14.2C151.274 15.192 151.538 15.968 152.066 16.528C152.594 17.088 153.298 17.368 154.178 17.368Z" fill="black"/>
<path d="M7.32 18.664L6.89419 19.5688L6.90094 19.572L7.32 18.664ZM5.424 17.008L4.57494 17.5363L4.57494 17.5363L5.424 17.008ZM4.728 14.44V13.44H3.71174L3.72813 14.4561L4.728 14.44ZM6.888 14.44H7.888V13.44H6.888V14.44ZM7.776 16.528L7.12179 17.2844L7.13186 17.2929L7.776 16.528ZM12.648 16.552L11.9954 15.7942L11.985 15.8034L12.648 16.552ZM12.936 12.64L12.1156 13.2118L12.1214 13.22L12.1273 13.2282L12.936 12.64ZM11.328 11.536L11.0292 12.4903L11.0369 12.4927L11.0447 12.495L11.328 11.536ZM8.952 10.792L9.25083 9.83767L9.24519 9.83595L8.952 10.792ZM6.168 8.944L5.36439 9.53927L5.37155 9.54871L6.168 8.944ZM5.832 3.448L4.97966 2.92497L4.97627 2.93058L5.832 3.448ZM7.632 1.816L8.07921 2.71043L8.08661 2.70673L8.09393 2.70291L7.632 1.816ZM14.04 2.512L13.3586 3.24392L13.3654 3.25021L14.04 2.512ZM15.456 5.92V6.92H16.4673L16.4559 5.90876L15.456 5.92ZM13.296 5.92H12.296V6.92H13.296V5.92ZM12.504 3.904L11.8082 4.62224L11.8196 4.63327L11.8313 4.64394L12.504 3.904ZM8.136 3.832L7.48902 3.06949L7.48322 3.07441L7.4775 3.07942L8.136 3.832ZM7.944 7.576L8.75274 6.98783L8.75274 6.98783L7.944 7.576ZM9.6 8.704L9.90479 7.75154L9.89707 7.74914L9.6 8.704ZM12 9.472L11.6952 10.4244L11.6995 10.4258L12 9.472ZM14.712 11.344L15.5207 10.7558L15.5207 10.7558L14.712 11.344ZM15 16.96L14.1509 16.4317L14.1509 16.4317L15 16.96ZM13.104 18.64L12.6638 17.7421L12.6568 17.7456L13.104 18.64ZM10.296 18.24C9.2526 18.24 8.41044 18.0659 7.73906 17.756L6.90094 19.572C7.89357 20.0301 9.0354 20.24 10.296 20.24V18.24ZM7.7458 17.7592C7.09262 17.4518 6.61264 17.0255 6.27306 16.4797L4.57494 17.5363C5.13136 18.4305 5.91538 19.1082 6.8942 19.5688L7.7458 17.7592ZM6.27306 16.4797C5.93605 15.9381 5.74145 15.2658 5.72787 14.4239L3.72813 14.4561C3.74655 15.5982 4.01595 16.6379 4.57494 17.5363L6.27306 16.4797ZM4.728 15.44H6.888V13.44H4.728V15.44ZM5.888 14.44C5.888 15.57 6.28142 16.5575 7.12185 17.2844L8.43015 15.7716C8.08658 15.4745 7.888 15.07 7.888 14.44H5.888ZM7.13186 17.2929C7.97454 18.0025 9.07078 18.296 10.296 18.296V16.296C9.37723 16.296 8.79346 16.0775 8.42014 15.7631L7.13186 17.2929ZM10.296 18.296C11.4625 18.296 12.5128 18.0076 13.311 17.3006L11.985 15.8034C11.6632 16.0884 11.1455 16.296 10.296 16.296V18.296ZM13.3005 17.3098C14.133 16.5929 14.512 15.6082 14.512 14.488H12.512C12.512 15.1278 12.315 15.5191 11.9955 15.7942L13.3005 17.3098ZM14.512 14.488C14.512 13.5902 14.263 12.7644 13.7447 12.0518L12.1273 13.2282C12.377 13.5716 12.512 13.9778 12.512 14.488H14.512ZM13.7564 12.0682C13.2405 11.3281 12.5009 10.8398 11.6113 10.577L11.0447 12.495C11.5631 12.6482 11.8955 12.8959 12.1156 13.2118L13.7564 12.0682ZM11.6268 10.5817L9.25082 9.83769L8.65318 11.7463L11.0292 12.4903L11.6268 10.5817ZM9.24519 9.83595C8.21305 9.51942 7.47452 9.01109 6.96445 8.33929L5.37155 9.54871C6.17349 10.6049 7.29095 11.3286 8.65881 11.7481L9.24519 9.83595ZM6.97156 8.34877C6.47031 7.67208 6.208 6.86923 6.208 5.896H4.208C4.208 7.25877 4.58569 8.48792 5.36444 9.53923L6.97156 8.34877ZM6.208 5.896C6.208 5.10226 6.38146 4.47194 6.68773 3.96542L4.97627 2.93058C4.45054 3.80006 4.208 4.80174 4.208 5.896H6.208ZM6.68432 3.97102C7.01464 3.43271 7.47135 3.01436 8.07921 2.71043L7.18479 0.921572C6.25665 1.38564 5.51336 2.05529 4.97968 2.92498L6.68432 3.97102ZM8.09393 2.70291C8.69332 2.39073 9.43275 2.216 10.344 2.216V0.215999C9.17526 0.215999 8.10668 0.441264 7.17007 0.929086L8.09393 2.70291ZM10.344 2.216C11.6836 2.216 12.6532 2.58715 13.3586 3.24389L14.7214 1.78011C13.5708 0.708851 12.0764 0.215999 10.344 0.215999V2.216ZM13.3654 3.25021C14.0609 3.88571 14.4427 4.74365 14.4561 5.93124L16.4559 5.90876C16.4373 4.24835 15.8751 2.83429 14.7146 1.77379L13.3654 3.25021ZM15.456 4.92H13.296V6.92H15.456V4.92ZM14.296 5.92C14.296 4.83863 13.9564 3.87294 13.1767 3.16406L11.8313 4.64394C12.1076 4.89505 12.296 5.27337 12.296 5.92H14.296ZM13.1998 3.18576C12.447 2.45653 11.4369 2.16 10.32 2.16V4.16C11.0911 4.16 11.537 4.35947 11.8082 4.62224L13.1998 3.18576ZM10.32 2.16C9.23619 2.16 8.25124 2.42276 7.48902 3.06949L8.78298 4.59451C9.07676 4.34524 9.54781 4.16 10.32 4.16V2.16ZM7.4775 3.07942C6.70972 3.75123 6.368 4.67148 6.368 5.704H8.368C8.368 5.13652 8.53828 4.80877 8.7945 4.58458L7.4775 3.07942ZM6.368 5.704C6.368 6.61251 6.61417 7.44766 7.13526 8.16417L8.75274 6.98783C8.50583 6.64834 8.368 6.23549 8.368 5.704H6.368ZM7.13526 8.16417C7.66489 8.8924 8.41047 9.3812 9.30293 9.65886L9.89707 7.74914C9.34953 7.5788 8.99111 7.3156 8.75274 6.98783L7.13526 8.16417ZM9.29522 9.65642L11.6952 10.4244L12.3048 8.51958L9.90478 7.75158L9.29522 9.65642ZM11.6995 10.4258C12.6901 10.7379 13.4048 11.2467 13.9033 11.9322L15.5207 10.7558C14.7392 9.68127 13.6459 8.9421 12.3005 8.51822L11.6995 10.4258ZM13.9033 11.9322C14.4079 12.626 14.672 13.4477 14.672 14.44H16.672C16.672 13.0643 16.2961 11.822 15.5207 10.7558L13.9033 11.9322ZM14.672 14.44C14.672 15.2386 14.4877 15.8904 14.1509 16.4317L15.8491 17.4883C16.4083 16.5896 16.672 15.5614 16.672 14.44H14.672ZM14.1509 16.4317C13.8091 16.9811 13.3242 17.4184 12.6638 17.7421L13.5442 19.5379C14.5158 19.0616 15.2949 18.3789 15.8491 17.4883L14.1509 16.4317ZM12.6568 17.7456C12.0206 18.0637 11.2433 18.24 10.296 18.24V20.24C11.4927 20.24 12.5874 20.0163 13.5512 19.5344L12.6568 17.7456ZM19.4306 19H18.4306V20H19.4306V19ZM19.4306 17.032V16.032H18.4306V17.032H19.4306ZM24.1106 17.032V18.032H25.1106V17.032H24.1106ZM24.1106 7.768H25.1106V6.768H24.1106V7.768ZM20.0306 7.768H19.0306V8.768H20.0306V7.768ZM20.0306 5.8V4.8H19.0306V5.8H20.0306ZM26.2706 5.8H27.2706V4.8H26.2706V5.8ZM26.2706 17.032H25.2706V18.032H26.2706V17.032ZM30.7106 17.032H31.7106V16.032H30.7106V17.032ZM30.7106 19V20H31.7106V19H30.7106ZM23.7026 3.016L23.0358 3.76124L23.0358 3.76124L23.7026 3.016ZM23.7026 0.783998L24.3694 1.52924L24.38 1.51974L24.3904 1.50995L23.7026 0.783998ZM26.1986 0.783998L25.5109 1.50995L25.5212 1.51974L25.5318 1.52924L26.1986 0.783998ZM26.1986 3.016L26.8654 3.76124L26.8654 3.76124L26.1986 3.016ZM20.4306 19V17.032H18.4306V19H20.4306ZM19.4306 18.032H24.1106V16.032H19.4306V18.032ZM25.1106 17.032V7.768H23.1106V17.032H25.1106ZM24.1106 6.768H20.0306V8.768H24.1106V6.768ZM21.0306 7.768V5.8H19.0306V7.768H21.0306ZM20.0306 6.8H26.2706V4.8H20.0306V6.8ZM25.2706 5.8V17.032H27.2706V5.8H25.2706ZM26.2706 18.032H30.7106V16.032H26.2706V18.032ZM29.7106 17.032V19H31.7106V17.032H29.7106ZM30.7106 18H19.4306V20H30.7106V18ZM24.9506 2.424C24.5943 2.424 24.4413 2.33509 24.3694 2.27076L23.0358 3.76124C23.5719 4.24091 24.251 4.424 24.9506 4.424V2.424ZM24.3694 2.27076C24.3077 2.21556 24.2466 2.13483 24.2466 1.912H22.2466C22.2466 2.61717 22.4895 3.27244 23.0358 3.76124L24.3694 2.27076ZM24.2466 1.912C24.2466 1.66138 24.3153 1.57764 24.3694 1.52924L23.0358 0.0387577C22.4819 0.534353 22.2466 1.20262 22.2466 1.912H24.2466ZM24.3904 1.50995C24.4635 1.44065 24.6088 1.352 24.9506 1.352V-0.648C24.2365 -0.648 23.5497 -0.448647 23.0149 0.0580449L24.3904 1.50995ZM24.9506 1.352C25.2925 1.352 25.4377 1.44065 25.5109 1.50995L26.8864 0.0580449C26.3515 -0.448646 25.6648 -0.648 24.9506 -0.648V1.352ZM25.5318 1.52924C25.5859 1.57764 25.6546 1.66138 25.6546 1.912H27.6546C27.6546 1.20262 27.4193 0.534353 26.8654 0.0387577L25.5318 1.52924ZM25.6546 1.912C25.6546 2.13483 25.5935 2.21556 25.5318 2.27076L26.8654 3.76124C27.4117 3.27244 27.6546 2.61717 27.6546 1.912H25.6546ZM25.5318 2.27076C25.4599 2.33509 25.307 2.424 24.9506 2.424V4.424C25.6503 4.424 26.3293 4.24091 26.8654 3.76124L25.5318 2.27076ZM33.3652 19H32.3652V20H33.3652V19ZM33.3652 5.8V4.8H32.3652V5.8H33.3652ZM35.2613 5.8H36.2613V4.8H35.2613V5.8ZM35.2613 7.384H34.2613V8.384H35.2613V7.384ZM35.6933 7.384L36.557 7.88787L37.4343 6.384H35.6933V7.384ZM35.3573 7.96H34.3573V11.6589L36.221 8.46387L35.3573 7.96ZM35.9333 6.208L35.1995 5.52859L35.1926 5.53604L35.1858 5.54363L35.9333 6.208ZM39.2453 6.376L40.0509 5.78361L40.0509 5.78361L39.2453 6.376ZM39.8453 8.68L38.9508 9.12721L40.8453 8.68H39.8453ZM39.1973 7.384V6.384H37.5792L38.3028 7.83121L39.1973 7.384ZM40.2053 7.384L40.9893 8.0047L42.2724 6.384H40.2053V7.384ZM39.7493 7.96H38.7493V10.8342L40.5333 8.5807L39.7493 7.96ZM40.3493 6.208L39.6289 5.51436L39.6221 5.52141L39.6155 5.52859L40.3493 6.208ZM43.9012 6.496L43.0889 7.07921L43.0938 7.086L43.0988 7.0927L43.9012 6.496ZM44.5973 19V20H45.5973V19H44.5973ZM42.6053 19H41.6053V20H42.6053V19ZM42.2453 7.672L41.4402 8.2652L41.4501 8.27859L41.4604 8.29164L42.2453 7.672ZM40.2053 7.672L39.4403 7.02785L39.437 7.03182L40.2053 7.672ZM39.8453 19V20H40.8453V19H39.8453ZM38.1172 19H37.1172V20H38.1172V19ZM37.7333 7.672L36.9484 8.29164L36.9665 8.31455L36.9858 8.33636L37.7333 7.672ZM35.6933 7.672L36.4826 8.28594L36.4906 8.27567L36.4983 8.2652L35.6933 7.672ZM35.3573 19V20H36.3573V19H35.3573ZM34.3652 19V5.8H32.3652V19H34.3652ZM33.3652 6.8H35.2613V4.8H33.3652V6.8ZM34.2613 5.8V7.384H36.2613V5.8H34.2613ZM35.2613 8.384H35.6933V6.384H35.2613V8.384ZM34.8295 6.88013L34.4935 7.45613L36.221 8.46387L36.557 7.88787L34.8295 6.88013ZM36.3573 7.96C36.3573 7.39985 36.5001 7.07555 36.6807 6.87236L35.1858 5.54363C34.5984 6.20445 34.3573 7.04815 34.3573 7.96H36.3573ZM36.667 6.88741C36.8502 6.68958 37.1045 6.56 37.5413 6.56V4.56C36.634 4.56 35.8163 4.86242 35.1995 5.52859L36.667 6.88741ZM37.5413 6.56C37.9924 6.56 38.2469 6.70632 38.4396 6.96839L40.0509 5.78361C39.4436 4.95768 38.5621 4.56 37.5413 4.56V6.56ZM38.4396 6.96839C38.6665 7.27702 38.8453 7.80554 38.8453 8.68H40.8453C40.8453 7.57046 40.624 6.56298 40.0509 5.78361L38.4396 6.96839ZM40.7397 8.23279L40.0917 6.93679L38.3028 7.83121L38.9508 9.12721L40.7397 8.23279ZM39.1973 8.384H40.2053V6.384H39.1973V8.384ZM39.4212 6.7633L38.9652 7.3393L40.5333 8.5807L40.9893 8.0047L39.4212 6.7633ZM40.7493 7.96C40.7493 7.41014 40.8942 7.09137 41.083 6.88741L39.6155 5.52859C39.0043 6.18863 38.7493 7.03786 38.7493 7.96H40.7493ZM41.0696 6.90164C41.2735 6.6899 41.545 6.56 41.9813 6.56V4.56C41.0735 4.56 40.257 4.8621 39.6289 5.51436L41.0696 6.90164ZM41.9813 6.56C42.5224 6.56 42.8463 6.74127 43.0889 7.07921L44.7136 5.91279C44.0602 5.00273 43.1041 4.56 41.9813 4.56V6.56ZM43.0988 7.0927C43.3992 7.49671 43.5973 8.0911 43.5973 8.968H45.5973C45.5973 7.7969 45.3313 6.74329 44.7037 5.8993L43.0988 7.0927ZM43.5973 8.968V19H45.5973V8.968H43.5973ZM44.5973 18H42.6053V20H44.5973V18ZM43.6053 19V8.944H41.6053V19H43.6053ZM43.6053 8.944C43.6053 8.26435 43.4562 7.592 43.0301 7.05236L41.4604 8.29164C41.5143 8.35999 41.6053 8.53565 41.6053 8.944H43.6053ZM43.0503 7.0788C42.6013 6.46944 41.936 6.216 41.2373 6.216V8.216C41.349 8.216 41.3993 8.23488 41.4131 8.24111C41.4201 8.2443 41.4232 8.24659 41.4248 8.24794C41.4266 8.24936 41.4319 8.25391 41.4402 8.2652L43.0503 7.0788ZM41.2373 6.216C40.5394 6.216 39.9043 6.47688 39.4403 7.02786L40.9702 8.31614C41.0182 8.25912 41.0711 8.216 41.2373 8.216V6.216ZM39.437 7.03182C38.9925 7.5653 38.8453 8.245 38.8453 8.92H40.8453C40.8453 8.507 40.938 8.3547 40.9735 8.31218L39.437 7.03182ZM38.8453 8.92V19H40.8453V8.92H38.8453ZM39.8453 18H38.1172V20H39.8453V18ZM39.1172 19V8.944H37.1172V19H39.1172ZM39.1172 8.944C39.1172 8.24827 38.9597 7.5465 38.4807 7.00764L36.9858 8.33636C37.0188 8.37349 37.1172 8.51973 37.1172 8.944H39.1172ZM38.5181 7.05235C38.0574 6.46872 37.4013 6.216 36.7013 6.216V8.216C36.8972 8.216 36.9291 8.26728 36.9484 8.29164L38.5181 7.05235ZM36.7013 6.216C36.0025 6.216 35.3372 6.46944 34.8882 7.0788L36.4983 8.2652C36.5066 8.25391 36.5119 8.24936 36.5137 8.24794C36.5153 8.24659 36.5184 8.2443 36.5254 8.24111C36.5392 8.23488 36.5895 8.216 36.7013 8.216V6.216ZM34.9039 7.05806C34.4907 7.58928 34.3573 8.2581 34.3573 8.92H36.3573C36.3573 8.4939 36.4478 8.33072 36.4826 8.28594L34.9039 7.05806ZM34.3573 8.92V19H36.3573V8.92H34.3573ZM35.3573 18H33.3652V20H35.3573V18ZM48.3799 23.32H47.3799V24.32H48.3799V23.32ZM48.3799 5.8V4.8H47.3799V5.8H48.3799ZM50.5399 5.8H51.5399V4.8H50.5399V5.8ZM50.5399 8.32H49.5399V9.32H50.5399V8.32ZM50.9719 8.32L51.7311 8.97079L53.1461 7.32H50.9719V8.32ZM50.5399 8.824H49.5399V11.5273L51.2991 9.47479L50.5399 8.824ZM51.5239 6.448L52.1837 7.19944L52.1849 7.19836L51.5239 6.448ZM57.3319 6.88L56.5852 7.54521L56.5916 7.55237L56.5981 7.55941L57.3319 6.88ZM57.9799 16.936L57.0854 16.4888L57.0815 16.4966L57.0777 16.5045L57.9799 16.936ZM56.4679 18.64L55.9472 17.7862L55.9379 17.792L56.4679 18.64ZM51.5479 18.352L50.8868 19.1024L51.5479 18.352ZM50.5399 15.976L51.2991 15.3252L49.5399 13.2727V15.976H50.5399ZM50.9719 16.48V17.48H53.1461L51.7311 15.8292L50.9719 16.48ZM50.4919 16.48V15.48H49.4757L49.492 16.496L50.4919 16.48ZM50.5399 19.48H51.5399V19.472L51.5397 19.464L50.5399 19.48ZM50.5399 23.32V24.32H51.5399V23.32H50.5399ZM55.5799 16.552L54.8623 15.8555L54.8569 15.861L54.8517 15.8666L55.5799 16.552ZM55.5799 8.248L54.8517 8.93336L54.8569 8.93896L54.8623 8.94448L55.5799 8.248ZM51.3319 8.272L50.6043 7.58599L50.6043 7.58599L51.3319 8.272ZM51.3319 16.528L50.6043 17.214L50.6043 17.214L51.3319 16.528ZM49.3799 23.32V5.8H47.3799V23.32H49.3799ZM48.3799 6.8H50.5399V4.8H48.3799V6.8ZM49.5399 5.8V8.32H51.5399V5.8H49.5399ZM50.5399 9.32H50.9719V7.32H50.5399V9.32ZM50.2126 7.66921L49.7806 8.17321L51.2991 9.47479L51.7311 8.97079L50.2126 7.66921ZM51.5399 8.824C51.5399 8.05452 51.7783 7.55534 52.1837 7.19944L50.8641 5.69656C49.9574 6.49266 49.5399 7.57748 49.5399 8.824H51.5399ZM52.1849 7.19836C52.637 6.80006 53.2645 6.56 54.1639 6.56V4.56C52.8872 4.56 51.7547 4.91194 50.8628 5.69764L52.1849 7.19836ZM54.1639 6.56C55.2468 6.56 56.0162 6.90647 56.5852 7.54521L58.0785 6.21479C57.0796 5.09353 55.7369 4.56 54.1639 4.56V6.56ZM56.5981 7.55941C57.1817 8.18965 57.5319 9.11224 57.5319 10.456H59.5319C59.5319 8.75976 59.0821 7.29835 58.0656 6.20059L56.5981 7.55941ZM57.5319 10.456V14.32H59.5319V10.456H57.5319ZM57.5319 14.32C57.5319 15.2071 57.3701 15.9194 57.0854 16.4888L58.8743 17.3832C59.3256 16.4806 59.5319 15.4489 59.5319 14.32H57.5319ZM57.0777 16.5045C56.8039 17.0771 56.4275 17.4934 55.9473 17.7862L56.9885 19.4938C57.8203 18.9866 58.4518 18.2669 58.882 17.3675L57.0777 16.5045ZM55.9379 17.792C55.4844 18.0754 54.9079 18.24 54.1639 18.24V20.24C55.2118 20.24 56.1713 20.0046 56.9979 19.488L55.9379 17.792ZM54.1639 18.24C53.2849 18.24 52.6637 18.0023 52.2089 17.6016L50.8868 19.1024C51.776 19.8857 52.8989 20.24 54.1639 20.24V18.24ZM52.2089 17.6016C51.7771 17.2212 51.5399 16.7154 51.5399 15.976H49.5399C49.5399 17.2206 49.9747 18.2988 50.8868 19.1024L52.2089 17.6016ZM49.7806 16.6268L50.2126 17.1308L51.7311 15.8292L51.2991 15.3252L49.7806 16.6268ZM50.9719 15.48H50.4919V17.48H50.9719V15.48ZM49.492 16.496L49.54 19.496L51.5397 19.464L51.4917 16.464L49.492 16.496ZM49.5399 19.48V23.32H51.5399V19.48H49.5399ZM50.5399 22.32H48.3799V24.32H50.5399V22.32ZM53.4439 18.368C54.5662 18.368 55.5665 18.0253 56.3081 17.2374L54.8517 15.8666C54.5693 16.1667 54.1456 16.368 53.4439 16.368V18.368ZM56.2975 17.2485C57.0626 16.4602 57.3719 15.3907 57.3719 14.2H55.3719C55.3719 15.0573 55.1532 15.5558 54.8623 15.8555L56.2975 17.2485ZM57.3719 14.2V10.6H55.3719V14.2H57.3719ZM57.3719 10.6C57.3719 9.40932 57.0626 8.33983 56.2975 7.55152L54.8623 8.94448C55.1532 9.24417 55.3719 9.74268 55.3719 10.6H57.3719ZM56.3081 7.56264C55.5665 6.77471 54.5662 6.432 53.4439 6.432V8.432C54.1456 8.432 54.5693 8.63329 54.8517 8.93336L56.3081 7.56264ZM53.4439 6.432C52.3318 6.432 51.349 6.79613 50.6043 7.58599L52.0595 8.95801C52.3707 8.62787 52.796 8.432 53.4439 8.432V6.432ZM50.6043 7.58599C49.8552 8.3805 49.5399 9.42929 49.5399 10.6H51.5399C51.5399 9.78671 51.7526 9.2835 52.0595 8.95801L50.6043 7.58599ZM49.5399 10.6V14.2H51.5399V10.6H49.5399ZM49.5399 14.2C49.5399 15.3707 49.8552 16.4195 50.6043 17.214L52.0595 15.842C51.7526 15.5165 51.5399 15.0133 51.5399 14.2H49.5399ZM50.6043 17.214C51.349 18.0039 52.3318 18.368 53.4439 18.368V16.368C52.796 16.368 52.3707 16.1721 52.0595 15.842L50.6043 17.214ZM67.5465 18.544L67.0797 19.4284L67.0797 19.4284L67.5465 18.544ZM66.2025 17.248L67.0707 16.7519L67.0707 16.7519L66.2025 17.248ZM65.7225 3.448H66.7225V2.448H65.7225V3.448ZM61.2825 3.448H60.2825V4.448H61.2825V3.448ZM61.2825 1.48V0.48H60.2825V1.48H61.2825ZM67.8825 1.48H68.8825V0.48H67.8825V1.48ZM68.3385 16.576L67.6135 17.2647L67.6223 17.274L67.6314 17.2831L68.3385 16.576ZM73.7625 17.032H74.7625V16.032H73.7625V17.032ZM73.7625 19V20H74.7625V19H73.7625ZM69.5625 18C68.9281 18 68.4217 17.8752 68.0133 17.6596L67.0797 19.4284C67.8233 19.8208 68.6609 20 69.5625 20V18ZM68.0133 17.6596C67.6035 17.4434 67.2955 17.1452 67.0707 16.7519L65.3343 17.7441C65.7495 18.4708 66.3375 19.0366 67.0797 19.4284L68.0133 17.6596ZM67.0707 16.7519C66.8505 16.3664 66.7225 15.8871 66.7225 15.28H64.7225C64.7225 16.1769 64.9145 17.0096 65.3343 17.7441L67.0707 16.7519ZM66.7225 15.28V3.448H64.7225V15.28H66.7225ZM65.7225 2.448H61.2825V4.448H65.7225V2.448ZM62.2825 3.448V1.48H60.2825V3.448H62.2825ZM61.2825 2.48H67.8825V0.48H61.2825V2.48ZM66.8825 1.48V15.28H68.8825V1.48H66.8825ZM66.8825 15.28C66.8825 16.0176 67.094 16.7179 67.6135 17.2647L69.0635 15.8873C68.975 15.7941 68.8825 15.6304 68.8825 15.28H66.8825ZM67.6314 17.2831C68.1581 17.8098 68.8396 18.032 69.5625 18.032V16.032C69.2614 16.032 69.1269 15.9501 69.0456 15.8689L67.6314 17.2831ZM69.5625 18.032H73.7625V16.032H69.5625V18.032ZM72.7625 17.032V19H74.7625V17.032H72.7625ZM73.7625 18H69.5625V20H73.7625V18ZM79.4171 18.616L78.9408 19.4953L78.9484 19.4993L79.4171 18.616ZM77.6171 16.864L76.7378 17.3403L76.7438 17.3513L76.75 17.3621L77.6171 16.864ZM77.6171 7.936L76.75 7.43787L76.746 7.44487L76.7421 7.45194L77.6171 7.936ZM79.4171 6.184L78.9484 5.30062L78.9408 5.30471L79.4171 6.184ZM84.8651 6.184L84.3888 7.06332L84.3964 7.06735L84.8651 6.184ZM86.6651 7.936L85.7901 8.42006L85.794 8.42712L85.798 8.43412L86.6651 7.936ZM87.3131 12.928V13.928H88.3131V12.928H87.3131ZM79.1051 12.928V11.928H78.1051V12.928H79.1051ZM79.8971 16.6L79.1695 17.286L79.1745 17.2913L79.1795 17.2965L79.8971 16.6ZM84.1691 16.984L84.6594 17.8556L84.6696 17.8498L84.6797 17.8439L84.1691 16.984ZM85.1051 15.64V14.64H84.2766L84.1226 15.4541L85.1051 15.64ZM87.2651 15.64L88.2567 15.7693L88.404 14.64H87.2651V15.64ZM85.6331 18.28L86.2009 19.1032L86.2038 19.1012L85.6331 18.28ZM85.2011 11.488H84.2011V14.1494L85.9537 12.1465L85.2011 11.488ZM84.4091 8.2L83.6711 8.87477L83.6763 8.88043L83.6815 8.88601L84.4091 8.2ZM79.8971 8.2L80.6247 8.88601L80.6247 8.88601L79.8971 8.2ZM79.1051 11.296H78.1051V12.296H79.1051V11.296ZM85.3691 11.296L86.1217 11.9545L87.5729 10.296H85.3691V11.296ZM82.1531 18.24C81.2484 18.24 80.5025 18.0599 79.8858 17.7327L78.9484 19.4993C79.8997 20.0041 80.9778 20.24 82.1531 20.24V18.24ZM79.8934 17.7367C79.2873 17.4084 78.8231 16.9558 78.4842 16.3659L76.75 17.3621C77.2751 18.2762 78.011 18.9916 78.9408 19.4953L79.8934 17.7367ZM78.4964 16.3877C78.1711 15.7871 77.9931 15.0675 77.9931 14.2H75.9931C75.9931 15.3485 76.2312 16.4049 76.7378 17.3403L78.4964 16.3877ZM77.9931 14.2V10.6H75.9931V14.2H77.9931ZM77.9931 10.6C77.9931 9.71291 78.1725 8.9979 78.4922 8.42006L76.7421 7.45194C76.2297 8.3781 75.9931 9.43909 75.9931 10.6H77.9931ZM78.4842 8.43412C78.8231 7.84418 79.2873 7.39161 79.8934 7.06329L78.9408 5.30471C78.011 5.80839 77.2751 6.52382 76.75 7.43787L78.4842 8.43412ZM79.8858 7.06735C80.5025 6.74012 81.2484 6.56 82.1531 6.56V4.56C80.9778 4.56 79.8997 4.79588 78.9484 5.30065L79.8858 7.06735ZM82.1531 6.56C83.0585 6.56 83.7926 6.74033 84.3888 7.06329L85.3414 5.30471C84.4016 4.79567 83.3278 4.56 82.1531 4.56V6.56ZM84.3964 7.06735C85.015 7.39561 85.4712 7.84351 85.7901 8.42006L87.5402 7.45194C87.0271 6.52449 86.2832 5.80439 85.3338 5.30065L84.3964 7.06735ZM85.798 8.43412C86.1284 9.0092 86.3131 9.71903 86.3131 10.6H88.3131C88.3131 9.43297 88.0659 8.3668 87.5322 7.43787L85.798 8.43412ZM86.3131 10.6V12.928H88.3131V10.6H86.3131ZM87.3131 11.928H79.1051V13.928H87.3131V11.928ZM78.1051 12.928V14.2H80.1051V12.928H78.1051ZM78.1051 14.2C78.1051 15.4038 78.4126 16.4833 79.1695 17.286L80.6247 15.914C80.3256 15.5967 80.1051 15.0762 80.1051 14.2H78.1051ZM79.1795 17.2965C79.946 18.0862 80.9884 18.416 82.1531 18.416V16.416C81.3659 16.416 80.9042 16.2018 80.6147 15.9035L79.1795 17.2965ZM82.1531 18.416C83.0894 18.416 83.9482 18.2556 84.6594 17.8556L83.6789 16.1124C83.366 16.2884 82.8809 16.416 82.1531 16.416V18.416ZM84.6797 17.8439C85.4418 17.3914 85.9231 16.696 86.0877 15.8259L84.1226 15.4541C84.0632 15.768 83.9205 15.9686 83.6586 16.1241L84.6797 17.8439ZM85.1051 16.64H87.2651V14.64H85.1051V16.64ZM86.2735 15.5107C86.1673 16.3248 85.7834 16.9578 85.0625 17.4588L86.2038 19.1012C87.3708 18.2902 88.0749 17.1632 88.2567 15.7693L86.2735 15.5107ZM85.0654 17.4568C84.34 17.9571 83.3904 18.24 82.1531 18.24V20.24C83.6999 20.24 85.0703 19.8829 86.2009 19.1032L85.0654 17.4568ZM86.2011 11.488V10.6H84.2011V11.488H86.2011ZM86.2011 10.6C86.2011 9.39625 85.8936 8.31675 85.1367 7.51399L83.6815 8.88601C83.9806 9.20325 84.2011 9.72375 84.2011 10.6H86.2011ZM85.1472 7.52523C84.3919 6.6992 83.3348 6.36 82.1531 6.36V8.36C82.9554 8.36 83.4023 8.5808 83.6711 8.87477L85.1472 7.52523ZM82.1531 6.36C80.9801 6.36 79.9342 6.70295 79.1695 7.51399L80.6247 8.88601C80.916 8.57705 81.3742 8.36 82.1531 8.36V6.36ZM79.1695 7.51399C78.4126 8.31675 78.1051 9.39625 78.1051 10.6H80.1051C80.1051 9.72375 80.3256 9.20325 80.6247 8.88601L79.1695 7.51399ZM78.1051 10.6V11.296H80.1051V10.6H78.1051ZM79.1051 12.296H85.3691V10.296H79.1051V12.296ZM84.6165 10.6375L84.4485 10.8295L85.9537 12.1465L86.1217 11.9545L84.6165 10.6375ZM108.054 18.664L107.629 19.5688L107.635 19.572L108.054 18.664ZM106.158 17.008L105.309 17.5363L105.309 17.5363L106.158 17.008ZM105.462 14.44V13.44H104.446L104.463 14.4561L105.462 14.44ZM107.622 14.44H108.622V13.44H107.622V14.44ZM108.51 16.528L107.856 17.2844L107.866 17.2929L108.51 16.528ZM113.382 16.552L112.73 15.7942L112.719 15.8034L113.382 16.552ZM113.67 12.64L112.85 13.2118L112.856 13.22L112.862 13.2282L113.67 12.64ZM112.062 11.536L111.764 12.4903L111.771 12.4927L111.779 12.495L112.062 11.536ZM109.686 10.792L109.985 9.83767L109.98 9.83595L109.686 10.792ZM106.902 8.944L106.099 9.53927L106.106 9.54871L106.902 8.944ZM106.566 3.448L105.714 2.92497L105.711 2.93058L106.566 3.448ZM108.366 1.816L108.814 2.71043L108.821 2.70673L108.828 2.70291L108.366 1.816ZM114.774 2.512L114.093 3.24392L114.1 3.25021L114.774 2.512ZM116.19 5.92V6.92H117.202L117.19 5.90876L116.19 5.92ZM114.03 5.92H113.03V6.92H114.03V5.92ZM113.238 3.904L112.543 4.62224L112.554 4.63327L112.566 4.64394L113.238 3.904ZM108.87 3.832L108.223 3.06949L108.218 3.07441L108.212 3.07942L108.87 3.832ZM108.678 7.576L109.487 6.98783L109.487 6.98783L108.678 7.576ZM110.334 8.704L110.639 7.75154L110.631 7.74914L110.334 8.704ZM112.734 9.472L112.43 10.4244L112.434 10.4258L112.734 9.472ZM115.446 11.344L116.255 10.7558L116.255 10.7558L115.446 11.344ZM115.734 16.96L114.885 16.4317L114.885 16.4317L115.734 16.96ZM113.838 18.64L113.398 17.7421L113.391 17.7456L113.838 18.64ZM111.03 18.24C109.987 18.24 109.145 18.0659 108.473 17.756L107.635 19.572C108.628 20.0301 109.77 20.24 111.03 20.24V18.24ZM108.48 17.7592C107.827 17.4518 107.347 17.0255 107.007 16.4797L105.309 17.5363C105.866 18.4305 106.65 19.1082 107.629 19.5688L108.48 17.7592ZM107.007 16.4797C106.67 15.9381 106.476 15.2658 106.462 14.4239L104.463 14.4561C104.481 15.5982 104.75 16.6379 105.309 17.5363L107.007 16.4797ZM105.462 15.44H107.622V13.44H105.462V15.44ZM106.622 14.44C106.622 15.57 107.016 16.5575 107.856 17.2844L109.165 15.7716C108.821 15.4745 108.622 15.07 108.622 14.44H106.622ZM107.866 17.2929C108.709 18.0025 109.805 18.296 111.03 18.296V16.296C110.112 16.296 109.528 16.0775 109.155 15.7631L107.866 17.2929ZM111.03 18.296C112.197 18.296 113.247 18.0076 114.045 17.3006L112.719 15.8034C112.398 16.0884 111.88 16.296 111.03 16.296V18.296ZM114.035 17.3098C114.867 16.5929 115.246 15.6082 115.246 14.488H113.246C113.246 15.1278 113.049 15.5191 112.73 15.7942L114.035 17.3098ZM115.246 14.488C115.246 13.5902 114.997 12.7644 114.479 12.0518L112.862 13.2282C113.111 13.5716 113.246 13.9778 113.246 14.488H115.246ZM114.491 12.0682C113.975 11.3281 113.235 10.8398 112.346 10.577L111.779 12.495C112.297 12.6482 112.63 12.8959 112.85 13.2118L114.491 12.0682ZM112.361 10.5817L109.985 9.83769L109.388 11.7463L111.764 12.4903L112.361 10.5817ZM109.98 9.83595C108.947 9.51942 108.209 9.01109 107.699 8.33929L106.106 9.54871C106.908 10.6049 108.025 11.3286 109.393 11.7481L109.98 9.83595ZM107.706 8.34877C107.205 7.67208 106.942 6.86923 106.942 5.896H104.942C104.942 7.25877 105.32 8.48792 106.099 9.53923L107.706 8.34877ZM106.942 5.896C106.942 5.10226 107.116 4.47194 107.422 3.96542L105.711 2.93058C105.185 3.80006 104.942 4.80174 104.942 5.896H106.942ZM107.419 3.97102C107.749 3.43271 108.206 3.01436 108.814 2.71043L107.919 0.921572C106.991 1.38564 106.248 2.05529 105.714 2.92498L107.419 3.97102ZM108.828 2.70291C109.428 2.39073 110.167 2.216 111.078 2.216V0.215999C109.91 0.215999 108.841 0.441264 107.904 0.929086L108.828 2.70291ZM111.078 2.216C112.418 2.216 113.388 2.58715 114.093 3.24389L115.456 1.78011C114.305 0.708851 112.811 0.215999 111.078 0.215999V2.216ZM114.1 3.25021C114.795 3.88571 115.177 4.74365 115.19 5.93124L117.19 5.90876C117.172 4.24835 116.609 2.83429 115.449 1.77379L114.1 3.25021ZM116.19 4.92H114.03V6.92H116.19V4.92ZM115.03 5.92C115.03 4.83863 114.691 3.87294 113.911 3.16406L112.566 4.64394C112.842 4.89505 113.03 5.27337 113.03 5.92H115.03ZM113.934 3.18576C113.181 2.45653 112.171 2.16 111.054 2.16V4.16C111.825 4.16 112.271 4.35947 112.543 4.62224L113.934 3.18576ZM111.054 2.16C109.971 2.16 108.986 2.42276 108.223 3.06949L109.517 4.59451C109.811 4.34524 110.282 4.16 111.054 4.16V2.16ZM108.212 3.07942C107.444 3.75123 107.102 4.67148 107.102 5.704H109.102C109.102 5.13652 109.273 4.80877 109.529 4.58458L108.212 3.07942ZM107.102 5.704C107.102 6.61251 107.349 7.44766 107.87 8.16417L109.487 6.98783C109.24 6.64834 109.102 6.23549 109.102 5.704H107.102ZM107.87 8.16417C108.399 8.8924 109.145 9.3812 110.037 9.65886L110.631 7.74914C110.084 7.5788 109.725 7.3156 109.487 6.98783L107.87 8.16417ZM110.03 9.65642L112.43 10.4244L113.039 8.51958L110.639 7.75158L110.03 9.65642ZM112.434 10.4258C113.425 10.7379 114.139 11.2467 114.638 11.9322L116.255 10.7558C115.474 9.68127 114.38 8.9421 113.035 8.51822L112.434 10.4258ZM114.638 11.9322C115.142 12.626 115.406 13.4477 115.406 14.44H117.406C117.406 13.0643 117.03 11.822 116.255 10.7558L114.638 11.9322ZM115.406 14.44C115.406 15.2386 115.222 15.8904 114.885 16.4317L116.583 17.4883C117.143 16.5896 117.406 15.5614 117.406 14.44H115.406ZM114.885 16.4317C114.543 16.9811 114.059 17.4184 113.398 17.7421L114.279 19.5379C115.25 19.0616 116.029 18.3789 116.583 17.4883L114.885 16.4317ZM113.391 17.7456C112.755 18.0637 111.978 18.24 111.03 18.24V20.24C112.227 20.24 113.322 20.0163 114.286 19.5344L113.391 17.7456ZM120.333 19H119.333V20H120.333V19ZM120.333 1.48V0.48H119.333V1.48H120.333ZM122.493 1.48H123.493V0.48H122.493V1.48ZM122.493 8.32H121.493V9.32H122.493V8.32ZM122.949 8.32L123.691 8.99091L125.202 7.32H122.949V8.32ZM122.493 8.824H121.493V11.4198L123.235 9.49491L122.493 8.824ZM123.429 6.424L124.097 7.16831L124.107 7.1588L123.429 6.424ZM129.189 6.784L128.468 7.47683L128.468 7.47683L129.189 6.784ZM130.365 19V20H131.365V19H130.365ZM128.205 19H127.205V20H128.205V19ZM127.437 8.176L126.708 8.86067L126.719 8.87206L126.73 8.88311L127.437 8.176ZM123.261 8.224L122.533 7.53799L122.528 7.54357L122.523 7.54923L123.261 8.224ZM122.493 19V20H123.493V19H122.493ZM121.333 19V1.48H119.333V19H121.333ZM120.333 2.48H122.493V0.48H120.333V2.48ZM121.493 1.48V5.8H123.493V1.48H121.493ZM121.493 5.8V8.32H123.493V5.8H121.493ZM122.493 9.32H122.949V7.32H122.493V9.32ZM122.207 7.64909L121.751 8.15309L123.235 9.49491L123.691 8.99091L122.207 7.64909ZM123.493 8.824C123.493 7.99441 123.733 7.49443 124.097 7.16824L122.761 5.67976C121.877 6.47357 121.493 7.57359 121.493 8.824H123.493ZM124.107 7.1588C124.496 6.79955 125.091 6.56 126.021 6.56V4.56C124.743 4.56 123.61 4.89645 122.751 5.68919L124.107 7.1588ZM126.021 6.56C127.128 6.56 127.905 6.89119 128.468 7.47683L129.91 6.09117C128.905 5.04481 127.57 4.56 126.021 4.56V6.56ZM128.468 7.47683C129.032 8.06367 129.365 8.90396 129.365 10.12H131.365C131.365 8.52004 130.914 7.13633 129.91 6.09117L128.468 7.47683ZM129.365 10.12V19H131.365V10.12H129.365ZM130.365 18H128.205V20H130.365V18ZM129.205 19V10.36H127.205V19H129.205ZM129.205 10.36C129.205 9.23466 128.896 8.22041 128.144 7.46889L126.73 8.88311C127.002 9.15559 127.205 9.59734 127.205 10.36H129.205ZM128.166 7.49132C127.445 6.72366 126.479 6.384 125.397 6.384V8.384C126.043 8.384 126.437 8.57234 126.708 8.86067L128.166 7.49132ZM125.397 6.384C124.275 6.384 123.282 6.74434 122.533 7.53799L123.989 8.91001C124.296 8.58366 124.727 8.384 125.397 8.384V6.384ZM122.523 7.54923C121.791 8.34989 121.493 9.41486 121.493 10.6H123.493C123.493 9.73714 123.707 9.21811 123.999 8.89877L122.523 7.54923ZM121.493 10.6V19H123.493V10.6H121.493ZM122.493 18H120.333V20H122.493V18ZM136.98 18.592L136.518 19.4789L136.518 19.4789L136.98 18.592ZM135.18 16.864L134.3 17.3403L134.306 17.3513L134.313 17.3621L135.18 16.864ZM135.18 7.936L134.313 7.43787L134.308 7.44487L134.305 7.45194L135.18 7.936ZM136.98 6.208L136.518 5.32108L136.518 5.32108L136.98 6.208ZM142.452 6.208L142.914 5.32109L142.914 5.32108L142.452 6.208ZM144.228 7.936L143.353 8.42006L143.356 8.42712L143.361 8.43412L144.228 7.936ZM144.228 16.864L143.356 16.3737L143.353 16.3799L144.228 16.864ZM142.452 18.592L142.914 19.4789L142.914 19.4789L142.452 18.592ZM141.924 16.48L142.631 17.1871L142.631 17.1871L141.924 16.48ZM137.508 8.32L136.811 7.60242L136.806 7.60762L136.801 7.61289L137.508 8.32ZM137.508 16.48L136.801 17.1871L136.806 17.1924L136.811 17.1976L137.508 16.48ZM139.716 18.192C138.786 18.192 138.039 18.0162 137.442 17.7051L136.518 19.4789C137.456 19.9678 138.534 20.192 139.716 20.192V18.192ZM137.442 17.7051C136.843 17.3935 136.384 16.9525 136.047 16.3659L134.313 17.3621C134.84 18.2795 135.58 18.9905 136.518 19.4789L137.442 17.7051ZM136.059 16.3877C135.736 15.7915 135.556 15.0573 135.556 14.152H133.556C133.556 15.3267 133.791 16.4005 134.3 17.3403L136.059 16.3877ZM135.556 14.152V10.648H133.556V14.152H135.556ZM135.556 10.648C135.556 9.72298 135.737 8.99361 136.055 8.42006L134.305 7.45194C133.79 8.38239 133.556 9.46102 133.556 10.648H135.556ZM136.047 8.43412C136.384 7.84749 136.843 7.40653 137.442 7.09491L136.518 5.32108C135.58 5.80947 134.84 6.52051 134.313 7.43787L136.047 8.43412ZM137.442 7.09491C138.039 6.7838 138.786 6.608 139.716 6.608V4.608C138.534 4.608 137.456 4.8322 136.518 5.32108L137.442 7.09491ZM139.716 6.608C140.646 6.608 141.392 6.7838 141.99 7.09491L142.914 5.32108C141.975 4.8322 140.898 4.608 139.716 4.608V6.608ZM141.99 7.09491C142.585 7.40487 143.032 7.8414 143.353 8.42006L145.103 7.45194C144.591 6.52659 143.854 5.81113 142.914 5.32109L141.99 7.09491ZM143.361 8.43412C143.69 9.00695 143.876 9.72396 143.876 10.624H145.876C145.876 9.44404 145.63 8.36904 145.095 7.43787L143.361 8.43412ZM143.876 10.624V14.152H145.876V10.624H143.876ZM143.876 14.152C143.876 15.0513 143.69 15.7804 143.356 16.3737L145.099 17.3543C145.629 16.4116 145.876 15.3327 145.876 14.152H143.876ZM143.353 16.3799C143.032 16.9586 142.585 17.3951 141.99 17.7051L142.914 19.4789C143.854 18.9889 144.591 18.2734 145.103 17.3481L143.353 16.3799ZM141.99 17.7051C141.392 18.0162 140.646 18.192 139.716 18.192V20.192C140.898 20.192 141.975 19.9678 142.914 19.4789L141.99 17.7051ZM139.716 18.272C140.851 18.272 141.869 17.949 142.631 17.1871L141.217 15.7729C140.922 16.067 140.468 16.272 139.716 16.272V18.272ZM142.631 17.1871C143.407 16.4107 143.716 15.3405 143.716 14.152H141.716C141.716 15.0115 141.496 15.4933 141.217 15.7729L142.631 17.1871ZM143.716 14.152V10.648H141.716V14.152H143.716ZM143.716 10.648C143.716 9.45951 143.407 8.38932 142.631 7.61289L141.217 9.02711C141.496 9.30668 141.716 9.78849 141.716 10.648H143.716ZM142.631 7.61289C141.869 6.85096 140.851 6.528 139.716 6.528V8.528C140.468 8.528 140.922 8.73304 141.217 9.02711L142.631 7.61289ZM139.716 6.528C138.589 6.528 137.582 6.85445 136.811 7.60242L138.204 9.03758C138.521 8.72955 138.986 8.528 139.716 8.528V6.528ZM136.801 7.61289C136.024 8.38932 135.716 9.45951 135.716 10.648H137.716C137.716 9.78849 137.935 9.30668 138.215 9.02711L136.801 7.61289ZM135.716 10.648V14.152H137.716V10.648H135.716ZM135.716 14.152C135.716 15.3405 136.024 16.4107 136.801 17.1871L138.215 15.7729C137.935 15.4933 137.716 15.0115 137.716 14.152H135.716ZM136.811 17.1976C137.582 17.9455 138.589 18.272 139.716 18.272V16.272C138.986 16.272 138.521 16.0705 138.204 15.7624L136.811 17.1976ZM149.114 23.32H148.114V24.32H149.114V23.32ZM149.114 5.8V4.8H148.114V5.8H149.114ZM151.274 5.8H152.274V4.8H151.274V5.8ZM151.274 8.32H150.274V9.32H151.274V8.32ZM151.706 8.32L152.466 8.97079L153.88 7.32H151.706V8.32ZM151.274 8.824H150.274V11.5273L152.034 9.47479L151.274 8.824ZM152.258 6.448L152.918 7.19944L152.919 7.19836L152.258 6.448ZM158.066 6.88L157.32 7.54521L157.326 7.55237L157.332 7.55941L158.066 6.88ZM158.714 16.936L157.82 16.4888L157.816 16.4966L157.812 16.5045L158.714 16.936ZM157.202 18.64L156.682 17.7862L156.672 17.792L157.202 18.64ZM152.282 18.352L151.621 19.1024L152.282 18.352ZM151.274 15.976L152.034 15.3252L150.274 13.2727V15.976H151.274ZM151.706 16.48V17.48H153.88L152.466 15.8292L151.706 16.48ZM151.226 16.48V15.48H150.21L150.226 16.496L151.226 16.48ZM151.274 19.48H152.274V19.472L152.274 19.464L151.274 19.48ZM151.274 23.32V24.32H152.274V23.32H151.274ZM156.314 16.552L155.597 15.8555L155.591 15.861L155.586 15.8666L156.314 16.552ZM156.314 8.248L155.586 8.93336L155.591 8.93896L155.597 8.94448L156.314 8.248ZM152.066 8.272L151.339 7.58599L151.339 7.58599L152.066 8.272ZM152.066 16.528L151.339 17.214L151.339 17.214L152.066 16.528ZM150.114 23.32V5.8H148.114V23.32H150.114ZM149.114 6.8H151.274V4.8H149.114V6.8ZM150.274 5.8V8.32H152.274V5.8H150.274ZM151.274 9.32H151.706V7.32H151.274V9.32ZM150.947 7.66921L150.515 8.17321L152.034 9.47479L152.466 8.97079L150.947 7.66921ZM152.274 8.824C152.274 8.05452 152.513 7.55534 152.918 7.19944L151.598 5.69656C150.692 6.49266 150.274 7.57748 150.274 8.824H152.274ZM152.919 7.19836C153.371 6.80006 153.999 6.56 154.898 6.56V4.56C153.622 4.56 152.489 4.91194 151.597 5.69764L152.919 7.19836ZM154.898 6.56C155.981 6.56 156.751 6.90647 157.32 7.54521L158.813 6.21479C157.814 5.09353 156.471 4.56 154.898 4.56V6.56ZM157.332 7.55941C157.916 8.18965 158.266 9.11224 158.266 10.456H160.266C160.266 8.75976 159.816 7.29835 158.8 6.20059L157.332 7.55941ZM158.266 10.456V14.32H160.266V10.456H158.266ZM158.266 14.32C158.266 15.2071 158.105 15.9194 157.82 16.4888L159.609 17.3832C160.06 16.4806 160.266 15.4489 160.266 14.32H158.266ZM157.812 16.5045C157.538 17.0771 157.162 17.4934 156.682 17.7862L157.723 19.4938C158.555 18.9866 159.186 18.2669 159.616 17.3675L157.812 16.5045ZM156.672 17.792C156.219 18.0754 155.642 18.24 154.898 18.24V20.24C155.946 20.24 156.906 20.0046 157.732 19.488L156.672 17.792ZM154.898 18.24C154.019 18.24 153.398 18.0023 152.943 17.6016L151.621 19.1024C152.51 19.8857 153.633 20.24 154.898 20.24V18.24ZM152.943 17.6016C152.511 17.2212 152.274 16.7154 152.274 15.976H150.274C150.274 17.2206 150.709 18.2988 151.621 19.1024L152.943 17.6016ZM150.515 16.6268L150.947 17.1308L152.466 15.8292L152.034 15.3252L150.515 16.6268ZM151.706 15.48H151.226V17.48H151.706V15.48ZM150.226 16.496L150.274 19.496L152.274 19.464L152.226 16.464L150.226 16.496ZM150.274 19.48V23.32H152.274V19.48H150.274ZM151.274 22.32H149.114V24.32H151.274V22.32ZM154.178 18.368C155.301 18.368 156.301 18.0253 157.042 17.2374L155.586 15.8666C155.304 16.1667 154.88 16.368 154.178 16.368V18.368ZM157.032 17.2485C157.797 16.4602 158.106 15.3907 158.106 14.2H156.106C156.106 15.0573 155.888 15.5558 155.597 15.8555L157.032 17.2485ZM158.106 14.2V10.6H156.106V14.2H158.106ZM158.106 10.6C158.106 9.40932 157.797 8.33983 157.032 7.55152L155.597 8.94448C155.888 9.24417 156.106 9.74268 156.106 10.6H158.106ZM157.042 7.56264C156.301 6.77471 155.301 6.432 154.178 6.432V8.432C154.88 8.432 155.304 8.63329 155.586 8.93336L157.042 7.56264ZM154.178 6.432C153.066 6.432 152.083 6.79613 151.339 7.58599L152.794 8.95801C153.105 8.62787 153.53 8.432 154.178 8.432V6.432ZM151.339 7.58599C150.59 8.3805 150.274 9.42929 150.274 10.6H152.274C152.274 9.78671 152.487 9.2835 152.794 8.95801L151.339 7.58599ZM150.274 10.6V14.2H152.274V10.6H150.274ZM150.274 14.2C150.274 15.3707 150.59 16.4195 151.339 17.214L152.794 15.842C152.487 15.5165 152.274 15.0133 152.274 14.2H150.274ZM151.339 17.214C152.083 18.0039 153.066 18.368 154.178 18.368V16.368C153.53 16.368 153.105 16.1721 152.794 15.842L151.339 17.214Z" fill="black" mask="url(#path-1-outside-1_1_2)"/>
</g>
<defs>
<filter id="filter0_d_1_2" x="0.727997" y="0.351997" width="162.538" height="30.968" filterUnits="userSpaceOnUse" color-interpolation-filters="sRGB">
<feFlood flood-opacity="0" result="BackgroundImageFix"/>
<feColorMatrix in="SourceAlpha" type="matrix" values="0 0 0 0 0 0 0 0 0 0 0 0 0 0 0 0 0 0 127 0" result="hardAlpha"/>
<feOffset dy="4"/>
<feGaussianBlur stdDeviation="2"/>
<feComposite in2="hardAlpha" operator="out"/>
<feColorMatrix type="matrix" values="0 0 0 0 0 0 0 0 0 0 0 0 0 0 0 0 0 0 0.25 0"/>
<feBlend mode="normal" in2="BackgroundImageFix" result="effect1_dropShadow_1_2"/>
<feBlend mode="normal" in="SourceGraphic" in2="effect1_dropShadow_1_2" result="shape"/>
</filter>
</defs>
</svg>
