<svg width="63" height="28" viewBox="0 0 63 28" fill="none" xmlns="http://www.w3.org/2000/svg">
<g filter="url(#filter0_d_3_3)">
<mask id="path-1-outside-1_3_3" maskUnits="userSpaceOnUse" x="3" y="-1" width="57" height="22" fill="black">
<rect fill="white" x="3" y="-1" width="57" height="22"/>
<path d="M10.296 19.24C9.144 19.24 8.152 19.048 7.32 18.664C6.504 18.28 5.872 17.728 5.424 17.008C4.976 16.288 4.744 15.432 4.728 14.44H6.888C6.888 15.32 7.184 16.016 7.776 16.528C8.384 17.04 9.224 17.296 10.296 17.296C11.304 17.296 12.088 17.048 12.648 16.552C13.224 16.056 13.512 15.368 13.512 14.488C13.512 13.784 13.32 13.168 12.936 12.64C12.568 12.112 12.032 11.744 11.328 11.536L8.952 10.792C7.752 10.424 6.824 9.808 6.168 8.944C5.528 8.08 5.208 7.064 5.208 5.896C5.208 4.952 5.416 4.136 5.832 3.448C6.264 2.744 6.864 2.2 7.632 1.816C8.4 1.416 9.304 1.216 10.344 1.216C11.88 1.216 13.112 1.648 14.04 2.512C14.968 3.36 15.44 4.496 15.456 5.92H13.296C13.296 5.056 13.032 4.384 12.504 3.904C11.992 3.408 11.264 3.16 10.32 3.16C9.392 3.16 8.664 3.384 8.136 3.832C7.624 4.28 7.368 4.904 7.368 5.704C7.368 6.424 7.56 7.048 7.944 7.576C8.328 8.104 8.88 8.48 9.6 8.704L12 9.472C13.168 9.84 14.072 10.464 14.712 11.344C15.352 12.224 15.672 13.256 15.672 14.44C15.672 15.4 15.448 16.24 15 16.96C14.552 17.68 13.92 18.24 13.104 18.64C12.304 19.04 11.368 19.24 10.296 19.24ZM19.4306 19V17.032H24.1106V7.768H20.0306V5.8H26.2706V17.032H30.7106V19H19.4306ZM24.9506 3.424C24.4226 3.424 24.0066 3.288 23.7026 3.016C23.3986 2.744 23.2466 2.376 23.2466 1.912C23.2466 1.432 23.3986 1.056 23.7026 0.783998C24.0066 0.495999 24.4226 0.352 24.9506 0.352C25.4786 0.352 25.8946 0.495999 26.1986 0.783998C26.5026 1.056 26.6546 1.432 26.6546 1.912C26.6546 2.376 26.5026 2.744 26.1986 3.016C25.8946 3.288 25.4786 3.424 24.9506 3.424ZM39.0773 19.24C37.9253 19.24 36.9333 19.048 36.1013 18.664C35.2853 18.28 34.6533 17.728 34.2053 17.008C33.7573 16.288 33.5253 15.432 33.5093 14.44H35.6693C35.6693 15.32 35.9653 16.016 36.5573 16.528C37.1653 17.04 38.0053 17.296 39.0773 17.296C40.0853 17.296 40.8693 17.048 41.4293 16.552C42.0053 16.056 42.2933 15.368 42.2933 14.488C42.2933 13.784 42.1013 13.168 41.7173 12.64C41.3493 12.112 40.8133 11.744 40.1093 11.536L37.7333 10.792C36.5333 10.424 35.6053 9.808 34.9492 8.944C34.3093 8.08 33.9893 7.064 33.9893 5.896C33.9893 4.952 34.1973 4.136 34.6133 3.448C35.0453 2.744 35.6453 2.2 36.4133 1.816C37.1813 1.416 38.0853 1.216 39.1253 1.216C40.6613 1.216 41.8933 1.648 42.8213 2.512C43.7493 3.36 44.2213 4.496 44.2373 5.92H42.0773C42.0773 5.056 41.8133 4.384 41.2853 3.904C40.7733 3.408 40.0453 3.16 39.1013 3.16C38.1733 3.16 37.4453 3.384 36.9173 3.832C36.4053 4.28 36.1493 4.904 36.1493 5.704C36.1493 6.424 36.3413 7.048 36.7253 7.576C37.1093 8.104 37.6613 8.48 38.3813 8.704L40.7813 9.472C41.9493 9.84 42.8533 10.464 43.4933 11.344C44.1333 12.224 44.4532 13.256 44.4532 14.44C44.4532 15.4 44.2292 16.24 43.7812 16.96C43.3333 17.68 42.7013 18.24 41.8853 18.64C41.0853 19.04 40.1493 19.24 39.0773 19.24ZM48.3799 19V1.48H50.5399V5.8V8.32H50.9959L50.5399 8.824C50.5399 7.784 50.8519 6.984 51.4759 6.424C52.0999 5.848 52.9639 5.56 54.0679 5.56C55.3959 5.56 56.4519 5.968 57.2359 6.784C58.0199 7.6 58.4119 8.712 58.4119 10.12V19H56.2519V10.36C56.2519 9.416 55.9959 8.688 55.4839 8.176C54.9879 7.648 54.3079 7.384 53.4439 7.384C52.5479 7.384 51.8359 7.664 51.3079 8.224C50.7959 8.784 50.5399 9.576 50.5399 10.6V19H48.3799Z"/>
</mask>
<path d="M10.296 19.24C9.144 19.24 8.152 19.048 7.32 18.664C6.504 18.28 5.872 17.728 5.424 17.008C4.976 16.288 4.744 15.432 4.728 14.44H6.888C6.888 15.32 7.184 16.016 7.776 16.528C8.384 17.04 9.224 17.296 10.296 17.296C11.304 17.296 12.088 17.048 12.648 16.552C13.224 16.056 13.512 15.368 13.512 14.488C13.512 13.784 13.32 13.168 12.936 12.64C12.568 12.112 12.032 11.744 11.328 11.536L8.952 10.792C7.752 10.424 6.824 9.808 6.168 8.944C5.528 8.08 5.208 7.064 5.208 5.896C5.208 4.952 5.416 4.136 5.832 3.448C6.264 2.744 6.864 2.2 7.632 1.816C8.4 1.416 9.304 1.216 10.344 1.216C11.88 1.216 13.112 1.648 14.04 2.512C14.968 3.36 15.44 4.496 15.456 5.92H13.296C13.296 5.056 13.032 4.384 12.504 3.904C11.992 3.408 11.264 3.16 10.32 3.16C9.392 3.16 8.664 3.384 8.136 3.832C7.624 4.28 7.368 4.904 7.368 5.704C7.368 6.424 7.56 7.048 7.944 7.576C8.328 8.104 8.88 8.48 9.6 8.704L12 9.472C13.168 9.84 14.072 10.464 14.712 11.344C15.352 12.224 15.672 13.256 15.672 14.44C15.672 15.4 15.448 16.24 15 16.96C14.552 17.68 13.92 18.24 13.104 18.64C12.304 19.04 11.368 19.24 10.296 19.24ZM19.4306 19V17.032H24.1106V7.768H20.0306V5.8H26.2706V17.032H30.7106V19H19.4306ZM24.9506 3.424C24.4226 3.424 24.0066 3.288 23.7026 3.016C23.3986 2.744 23.2466 2.376 23.2466 1.912C23.2466 1.432 23.3986 1.056 23.7026 0.783998C24.0066 0.495999 24.4226 0.352 24.9506 0.352C25.4786 0.352 25.8946 0.495999 26.1986 0.783998C26.5026 1.056 26.6546 1.432 26.6546 1.912C26.6546 2.376 26.5026 2.744 26.1986 3.016C25.8946 3.288 25.4786 3.424 24.9506 3.424ZM39.0773 19.24C37.9253 19.24 36.9333 19.048 36.1013 18.664C35.2853 18.28 34.6533 17.728 34.2053 17.008C33.7573 16.288 33.5253 15.432 33.5093 14.44H35.6693C35.6693 15.32 35.9653 16.016 36.5573 16.528C37.1653 17.04 38.0053 17.296 39.0773 17.296C40.0853 17.296 40.8693 17.048 41.4293 16.552C42.0053 16.056 42.2933 15.368 42.2933 14.488C42.2933 13.784 42.1013 13.168 41.7173 12.64C41.3493 12.112 40.8133 11.744 40.1093 11.536L37.7333 10.792C36.5333 10.424 35.6053 9.808 34.9492 8.944C34.3093 8.08 33.9893 7.064 33.9893 5.896C33.9893 4.952 34.1973 4.136 34.6133 3.448C35.0453 2.744 35.6453 2.2 36.4133 1.816C37.1813 1.416 38.0853 1.216 39.1253 1.216C40.6613 1.216 41.8933 1.648 42.8213 2.512C43.7493 3.36 44.2213 4.496 44.2373 5.92H42.0773C42.0773 5.056 41.8133 4.384 41.2853 3.904C40.7733 3.408 40.0453 3.16 39.1013 3.16C38.1733 3.16 37.4453 3.384 36.9173 3.832C36.4053 4.28 36.1493 4.904 36.1493 5.704C36.1493 6.424 36.3413 7.048 36.7253 7.576C37.1093 8.104 37.6613 8.48 38.3813 8.704L40.7813 9.472C41.9493 9.84 42.8533 10.464 43.4933 11.344C44.1333 12.224 44.4532 13.256 44.4532 14.44C44.4532 15.4 44.2292 16.24 43.7812 16.96C43.3333 17.68 42.7013 18.24 41.8853 18.64C41.0853 19.04 40.1493 19.24 39.0773 19.24ZM48.3799 19V1.48H50.5399V5.8V8.32H50.9959L50.5399 8.824C50.5399 7.784 50.8519 6.984 51.4759 6.424C52.0999 5.848 52.9639 5.56 54.0679 5.56C55.3959 5.56 56.4519 5.968 57.2359 6.784C58.0199 7.6 58.4119 8.712 58.4119 10.12V19H56.2519V10.36C56.2519 9.416 55.9959 8.688 55.4839 8.176C54.9879 7.648 54.3079 7.384 53.4439 7.384C52.5479 7.384 51.8359 7.664 51.3079 8.224C50.7959 8.784 50.5399 9.576 50.5399 10.6V19H48.3799Z" fill="black"/>
<path d="M7.32 18.664L6.89419 19.5688L6.90094 19.572L7.32 18.664ZM5.424 17.008L4.57494 17.5363L4.57494 17.5363L5.424 17.008ZM4.728 14.44V13.44H3.71174L3.72813 14.4561L4.728 14.44ZM6.888 14.44H7.888V13.44H6.888V14.44ZM7.776 16.528L7.12179 17.2844L7.13186 17.2929L7.776 16.528ZM12.648 16.552L11.9954 15.7942L11.985 15.8034L12.648 16.552ZM12.936 12.64L12.1156 13.2118L12.1214 13.22L12.1273 13.2282L12.936 12.64ZM11.328 11.536L11.0292 12.4903L11.0369 12.4927L11.0447 12.495L11.328 11.536ZM8.952 10.792L9.25083 9.83767L9.24519 9.83595L8.952 10.792ZM6.168 8.944L5.36439 9.53927L5.37155 9.54871L6.168 8.944ZM5.832 3.448L4.97966 2.92497L4.97627 2.93058L5.832 3.448ZM7.632 1.816L8.07921 2.71043L8.08661 2.70673L8.09393 2.70291L7.632 1.816ZM14.04 2.512L13.3586 3.24392L13.3654 3.25021L14.04 2.512ZM15.456 5.92V6.92H16.4673L16.4559 5.90876L15.456 5.92ZM13.296 5.92H12.296V6.92H13.296V5.92ZM12.504 3.904L11.8082 4.62224L11.8196 4.63327L11.8313 4.64394L12.504 3.904ZM8.136 3.832L7.48902 3.06949L7.48322 3.07441L7.4775 3.07942L8.136 3.832ZM7.944 7.576L8.75274 6.98783L8.75274 6.98783L7.944 7.576ZM9.6 8.704L9.90479 7.75154L9.89707 7.74914L9.6 8.704ZM12 9.472L11.6952 10.4244L11.6995 10.4258L12 9.472ZM14.712 11.344L15.5207 10.7558L15.5207 10.7558L14.712 11.344ZM15 16.96L14.1509 16.4317L14.1509 16.4317L15 16.96ZM13.104 18.64L12.6638 17.7421L12.6568 17.7456L13.104 18.64ZM10.296 18.24C9.2526 18.24 8.41044 18.0659 7.73906 17.756L6.90094 19.572C7.89357 20.0301 9.0354 20.24 10.296 20.24V18.24ZM7.7458 17.7592C7.09262 17.4518 6.61264 17.0255 6.27306 16.4797L4.57494 17.5363C5.13136 18.4305 5.91538 19.1082 6.8942 19.5688L7.7458 17.7592ZM6.27306 16.4797C5.93605 15.9381 5.74145 15.2658 5.72787 14.4239L3.72813 14.4561C3.74655 15.5982 4.01595 16.6379 4.57494 17.5363L6.27306 16.4797ZM4.728 15.44H6.888V13.44H4.728V15.44ZM5.888 14.44C5.888 15.57 6.28142 16.5575 7.12185 17.2844L8.43015 15.7716C8.08658 15.4745 7.888 15.07 7.888 14.44H5.888ZM7.13186 17.2929C7.97454 18.0025 9.07078 18.296 10.296 18.296V16.296C9.37723 16.296 8.79346 16.0775 8.42014 15.7631L7.13186 17.2929ZM10.296 18.296C11.4625 18.296 12.5128 18.0076 13.311 17.3006L11.985 15.8034C11.6632 16.0884 11.1455 16.296 10.296 16.296V18.296ZM13.3005 17.3098C14.133 16.5929 14.512 15.6082 14.512 14.488H12.512C12.512 15.1278 12.315 15.5191 11.9955 15.7942L13.3005 17.3098ZM14.512 14.488C14.512 13.5902 14.263 12.7644 13.7447 12.0518L12.1273 13.2282C12.377 13.5716 12.512 13.9778 12.512 14.488H14.512ZM13.7564 12.0682C13.2405 11.3281 12.5009 10.8398 11.6113 10.577L11.0447 12.495C11.5631 12.6482 11.8955 12.8959 12.1156 13.2118L13.7564 12.0682ZM11.6268 10.5817L9.25082 9.83769L8.65318 11.7463L11.0292 12.4903L11.6268 10.5817ZM9.24519 9.83595C8.21305 9.51942 7.47452 9.01109 6.96445 8.33929L5.37155 9.54871C6.17349 10.6049 7.29095 11.3286 8.65881 11.7481L9.24519 9.83595ZM6.97156 8.34877C6.47031 7.67208 6.208 6.86923 6.208 5.896H4.208C4.208 7.25877 4.58569 8.48792 5.36444 9.53923L6.97156 8.34877ZM6.208 5.896C6.208 5.10226 6.38146 4.47194 6.68773 3.96542L4.97627 2.93058C4.45054 3.80006 4.208 4.80174 4.208 5.896H6.208ZM6.68432 3.97102C7.01464 3.43271 7.47135 3.01436 8.07921 2.71043L7.18479 0.921572C6.25665 1.38564 5.51336 2.05529 4.97968 2.92498L6.68432 3.97102ZM8.09393 2.70291C8.69332 2.39073 9.43275 2.216 10.344 2.216V0.215999C9.17526 0.215999 8.10668 0.441264 7.17007 0.929086L8.09393 2.70291ZM10.344 2.216C11.6836 2.216 12.6532 2.58715 13.3586 3.24389L14.7214 1.78011C13.5708 0.708851 12.0764 0.215999 10.344 0.215999V2.216ZM13.3654 3.25021C14.0609 3.88571 14.4427 4.74365 14.4561 5.93124L16.4559 5.90876C16.4373 4.24835 15.8751 2.83429 14.7146 1.77379L13.3654 3.25021ZM15.456 4.92H13.296V6.92H15.456V4.92ZM14.296 5.92C14.296 4.83863 13.9564 3.87294 13.1767 3.16406L11.8313 4.64394C12.1076 4.89505 12.296 5.27337 12.296 5.92H14.296ZM13.1998 3.18576C12.447 2.45653 11.4369 2.16 10.32 2.16V4.16C11.0911 4.16 11.537 4.35947 11.8082 4.62224L13.1998 3.18576ZM10.32 2.16C9.23619 2.16 8.25124 2.42276 7.48902 3.06949L8.78298 4.59451C9.07676 4.34524 9.54781 4.16 10.32 4.16V2.16ZM7.4775 3.07942C6.70972 3.75123 6.368 4.67148 6.368 5.704H8.368C8.368 5.13652 8.53828 4.80877 8.7945 4.58458L7.4775 3.07942ZM6.368 5.704C6.368 6.61251 6.61417 7.44766 7.13526 8.16417L8.75274 6.98783C8.50583 6.64834 8.368 6.23549 8.368 5.704H6.368ZM7.13526 8.16417C7.66489 8.8924 8.41047 9.3812 9.30293 9.65886L9.89707 7.74914C9.34953 7.5788 8.99111 7.3156 8.75274 6.98783L7.13526 8.16417ZM9.29522 9.65642L11.6952 10.4244L12.3048 8.51958L9.90478 7.75158L9.29522 9.65642ZM11.6995 10.4258C12.6901 10.7379 13.4048 11.2467 13.9033 11.9322L15.5207 10.7558C14.7392 9.68127 13.6459 8.9421 12.3005 8.51822L11.6995 10.4258ZM13.9033 11.9322C14.4079 12.626 14.672 13.4477 14.672 14.44H16.672C16.672 13.0643 16.2961 11.822 15.5207 10.7558L13.9033 11.9322ZM14.672 14.44C14.672 15.2386 14.4877 15.8904 14.1509 16.4317L15.8491 17.4883C16.4083 16.5896 16.672 15.5614 16.672 14.44H14.672ZM14.1509 16.4317C13.8091 16.9811 13.3242 17.4184 12.6638 17.7421L13.5442 19.5379C14.5158 19.0616 15.2949 18.3789 15.8491 17.4883L14.1509 16.4317ZM12.6568 17.7456C12.0206 18.0637 11.2433 18.24 10.296 18.24V20.24C11.4927 20.24 12.5874 20.0163 13.5512 19.5344L12.6568 17.7456ZM19.4306 19H18.4306V20H19.4306V19ZM19.4306 17.032V16.032H18.4306V17.032H19.4306ZM24.1106 17.032V18.032H25.1106V17.032H24.1106ZM24.1106 7.768H25.1106V6.768H24.1106V7.768ZM20.0306 7.768H19.0306V8.768H20.0306V7.768ZM20.0306 5.8V4.8H19.0306V5.8H20.0306ZM26.2706 5.8H27.2706V4.8H26.2706V5.8ZM26.2706 17.032H25.2706V18.032H26.2706V17.032ZM30.7106 17.032H31.7106V16.032H30.7106V17.032ZM30.7106 19V20H31.7106V19H30.7106ZM23.7026 3.016L23.0358 3.76124L23.0358 3.76124L23.7026 3.016ZM23.7026 0.783998L24.3694 1.52924L24.38 1.51974L24.3904 1.50995L23.7026 0.783998ZM26.1986 0.783998L25.5109 1.50995L25.5212 1.51974L25.5318 1.52924L26.1986 0.783998ZM26.1986 3.016L26.8654 3.76124L26.8654 3.76124L26.1986 3.016ZM20.4306 19V17.032H18.4306V19H20.4306ZM19.4306 18.032H24.1106V16.032H19.4306V18.032ZM25.1106 17.032V7.768H23.1106V17.032H25.1106ZM24.1106 6.768H20.0306V8.768H24.1106V6.768ZM21.0306 7.768V5.8H19.0306V7.768H21.0306ZM20.0306 6.8H26.2706V4.8H20.0306V6.8ZM25.2706 5.8V17.032H27.2706V5.8H25.2706ZM26.2706 18.032H30.7106V16.032H26.2706V18.032ZM29.7106 17.032V19H31.7106V17.032H29.7106ZM30.7106 18H19.4306V20H30.7106V18ZM24.9506 2.424C24.5943 2.424 24.4413 2.33509 24.3694 2.27076L23.0358 3.76124C23.5719 4.24091 24.251 4.424 24.9506 4.424V2.424ZM24.3694 2.27076C24.3077 2.21556 24.2466 2.13483 24.2466 1.912H22.2466C22.2466 2.61717 22.4895 3.27244 23.0358 3.76124L24.3694 2.27076ZM24.2466 1.912C24.2466 1.66138 24.3153 1.57764 24.3694 1.52924L23.0358 0.0387577C22.4819 0.534353 22.2466 1.20262 22.2466 1.912H24.2466ZM24.3904 1.50995C24.4635 1.44065 24.6088 1.352 24.9506 1.352V-0.648C24.2365 -0.648 23.5497 -0.448647 23.0149 0.0580449L24.3904 1.50995ZM24.9506 1.352C25.2925 1.352 25.4377 1.44065 25.5109 1.50995L26.8864 0.0580449C26.3515 -0.448646 25.6648 -0.648 24.9506 -0.648V1.352ZM25.5318 1.52924C25.5859 1.57764 25.6546 1.66138 25.6546 1.912H27.6546C27.6546 1.20262 27.4193 0.534353 26.8654 0.0387577L25.5318 1.52924ZM25.6546 1.912C25.6546 2.13483 25.5935 2.21556 25.5318 2.27076L26.8654 3.76124C27.4117 3.27244 27.6546 2.61717 27.6546 1.912H25.6546ZM25.5318 2.27076C25.4599 2.33509 25.307 2.424 24.9506 2.424V4.424C25.6503 4.424 26.3293 4.24091 26.8654 3.76124L25.5318 2.27076ZM36.1013 18.664L35.6754 19.5688L35.6822 19.572L36.1013 18.664ZM34.2053 17.008L33.3562 17.5363L33.3562 17.5363L34.2053 17.008ZM33.5093 14.44V13.44H32.493L32.5094 14.4561L33.5093 14.44ZM35.6693 14.44H36.6693V13.44H35.6693V14.44ZM36.5573 16.528L35.903 17.2844L35.9131 17.2929L36.5573 16.528ZM41.4293 16.552L40.7767 15.7942L40.7662 15.8034L41.4293 16.552ZM41.7173 12.64L40.8969 13.2118L40.9026 13.22L40.9085 13.2282L41.7173 12.64ZM40.1093 11.536L39.8104 12.4903L39.8181 12.4927L39.8259 12.495L40.1093 11.536ZM37.7333 10.792L38.0321 9.83767L38.0264 9.83595L37.7333 10.792ZM34.9492 8.944L34.1456 9.53927L34.1528 9.54871L34.9492 8.944ZM34.6133 3.448L33.7609 2.92497L33.7575 2.93058L34.6133 3.448ZM36.4133 1.816L36.8605 2.71043L36.8679 2.70673L36.8752 2.70291L36.4133 1.816ZM42.8213 2.512L42.1398 3.24392L42.1467 3.25021L42.8213 2.512ZM44.2373 5.92V6.92H45.2486L45.2372 5.90876L44.2373 5.92ZM42.0773 5.92H41.0773V6.92H42.0773V5.92ZM41.2853 3.904L40.5895 4.62224L40.6008 4.63327L40.6126 4.64394L41.2853 3.904ZM36.9173 3.832L36.2703 3.06949L36.2645 3.07441L36.2587 3.07942L36.9173 3.832ZM36.7253 7.576L37.534 6.98783L37.534 6.98783L36.7253 7.576ZM38.3813 8.704L38.686 7.75154L38.6783 7.74914L38.3813 8.704ZM40.7813 9.472L40.4765 10.4244L40.4807 10.4258L40.7813 9.472ZM43.4933 11.344L44.302 10.7558L44.302 10.7558L43.4933 11.344ZM43.7812 16.96L42.9322 16.4317L42.9322 16.4317L43.7812 16.96ZM41.8853 18.64L41.4451 17.7421L41.438 17.7456L41.8853 18.64ZM39.0773 18.24C38.0339 18.24 37.1917 18.0659 36.5203 17.756L35.6822 19.572C36.6748 20.0301 37.8166 20.24 39.0773 20.24V18.24ZM36.527 17.7592C35.8739 17.4518 35.3939 17.0255 35.0543 16.4797L33.3562 17.5363C33.9126 18.4305 34.6966 19.1082 35.6755 19.5688L36.527 17.7592ZM35.0543 16.4797C34.7173 15.9381 34.5227 15.2658 34.5091 14.4239L32.5094 14.4561C32.5278 15.5982 32.7972 16.6379 33.3562 17.5363L35.0543 16.4797ZM33.5093 15.44H35.6693V13.44H33.5093V15.44ZM34.6693 14.44C34.6693 15.57 35.0627 16.5575 35.9031 17.2844L37.2114 15.7716C36.8678 15.4745 36.6693 15.07 36.6693 14.44H34.6693ZM35.9131 17.2929C36.7558 18.0025 37.852 18.296 39.0773 18.296V16.296C38.1585 16.296 37.5747 16.0775 37.2014 15.7631L35.9131 17.2929ZM39.0773 18.296C40.2437 18.296 41.294 18.0076 42.0923 17.3006L40.7662 15.8034C40.4445 16.0884 39.9268 16.296 39.0773 16.296V18.296ZM42.0818 17.3098C42.9143 16.5929 43.2933 15.6082 43.2933 14.488H41.2933C41.2933 15.1278 41.0962 15.5191 40.7767 15.7942L42.0818 17.3098ZM43.2933 14.488C43.2933 13.5902 43.0442 12.7644 42.526 12.0518L40.9085 13.2282C41.1583 13.5716 41.2933 13.9778 41.2933 14.488H43.2933ZM42.5376 12.0682C42.0218 11.3281 41.2821 10.8398 40.3926 10.577L39.8259 12.495C40.3444 12.6482 40.6767 12.8959 40.8969 13.2118L42.5376 12.0682ZM40.4081 10.5817L38.0321 9.83769L37.4344 11.7463L39.8104 12.4903L40.4081 10.5817ZM38.0264 9.83595C36.9943 9.51942 36.2558 9.01109 35.7457 8.33929L34.1528 9.54871C34.9547 10.6049 36.0722 11.3286 37.4401 11.7481L38.0264 9.83595ZM35.7528 8.34877C35.2516 7.67208 34.9893 6.86923 34.9893 5.896H32.9893C32.9893 7.25877 33.3669 8.48792 34.1457 9.53923L35.7528 8.34877ZM34.9893 5.896C34.9893 5.10226 35.1627 4.47194 35.469 3.96542L33.7575 2.93058C33.2318 3.80006 32.9893 4.80174 32.9893 5.896H34.9893ZM35.4656 3.97102C35.7959 3.43271 36.2526 3.01436 36.8605 2.71043L35.966 0.921572C35.0379 1.38564 34.2946 2.05529 33.7609 2.92498L35.4656 3.97102ZM36.8752 2.70291C37.4746 2.39073 38.214 2.216 39.1253 2.216V0.215999C37.9565 0.215999 36.8879 0.441264 35.9513 0.929086L36.8752 2.70291ZM39.1253 2.216C40.4648 2.216 41.4344 2.58715 42.1398 3.24389L43.5027 1.78011C42.3521 0.708851 40.8577 0.215999 39.1253 0.215999V2.216ZM42.1467 3.25021C42.8421 3.88571 43.224 4.74365 43.2373 5.93124L45.2372 5.90876C45.2185 4.24835 44.6564 2.83429 43.4958 1.77379L42.1467 3.25021ZM44.2373 4.92H42.0773V6.92H44.2373V4.92ZM43.0773 5.92C43.0773 4.83863 42.7377 3.87294 41.9579 3.16406L40.6126 4.64394C40.8888 4.89505 41.0773 5.27337 41.0773 5.92H43.0773ZM41.981 3.18576C41.2283 2.45653 40.2182 2.16 39.1013 2.16V4.16C39.8723 4.16 40.3182 4.35947 40.5895 4.62224L41.981 3.18576ZM39.1013 2.16C38.0174 2.16 37.0325 2.42276 36.2703 3.06949L37.5642 4.59451C37.858 4.34524 38.3291 4.16 39.1013 4.16V2.16ZM36.2587 3.07942C35.491 3.75123 35.1493 4.67148 35.1493 5.704H37.1493C37.1493 5.13652 37.3195 4.80877 37.5758 4.58458L36.2587 3.07942ZM35.1493 5.704C35.1493 6.61251 35.3954 7.44766 35.9165 8.16417L37.534 6.98783C37.2871 6.64834 37.1493 6.23549 37.1493 5.704H35.1493ZM35.9165 8.16417C36.4461 8.8924 37.1917 9.3812 38.0842 9.65886L38.6783 7.74914C38.1308 7.5788 37.7724 7.3156 37.534 6.98783L35.9165 8.16417ZM38.0765 9.65642L40.4765 10.4244L41.086 8.51958L38.686 7.75158L38.0765 9.65642ZM40.4807 10.4258C41.4714 10.7379 42.186 11.2467 42.6845 11.9322L44.302 10.7558C43.5205 9.68127 42.4271 8.9421 41.0818 8.51822L40.4807 10.4258ZM42.6845 11.9322C43.1891 12.626 43.4532 13.4477 43.4532 14.44H45.4532C45.4532 13.0643 45.0774 11.822 44.302 10.7558L42.6845 11.9322ZM43.4532 14.44C43.4532 15.2386 43.269 15.8904 42.9322 16.4317L44.6303 17.4883C45.1895 16.5896 45.4532 15.5614 45.4532 14.44H43.4532ZM42.9322 16.4317C42.5903 16.9811 42.1054 17.4184 41.4451 17.7421L42.3254 19.5379C43.2971 19.0616 44.0762 18.3789 44.6303 17.4883L42.9322 16.4317ZM41.438 17.7456C40.8018 18.0637 40.0245 18.24 39.0773 18.24V20.24C40.274 20.24 41.3687 20.0163 42.3325 19.5344L41.438 17.7456ZM48.3799 19H47.3799V20H48.3799V19ZM48.3799 1.48V0.48H47.3799V1.48H48.3799ZM50.5399 1.48H51.5399V0.48H50.5399V1.48ZM50.5399 8.32H49.5399V9.32H50.5399V8.32ZM50.9959 8.32L51.7374 8.99091L53.2492 7.32H50.9959V8.32ZM50.5399 8.824H49.5399V11.4198L51.2814 9.49491L50.5399 8.824ZM51.4759 6.424L52.1439 7.16831L52.1542 7.1588L51.4759 6.424ZM57.2359 6.784L56.5148 7.47683L56.5148 7.47683L57.2359 6.784ZM58.4119 19V20H59.4119V19H58.4119ZM56.2519 19H55.2519V20H56.2519V19ZM55.4839 8.176L54.755 8.86067L54.7657 8.87206L54.7768 8.88311L55.4839 8.176ZM51.3079 8.224L50.5803 7.53799L50.575 7.54357L50.5698 7.54923L51.3079 8.224ZM50.5399 19V20H51.5399V19H50.5399ZM49.3799 19V1.48H47.3799V19H49.3799ZM48.3799 2.48H50.5399V0.48H48.3799V2.48ZM49.5399 1.48V5.8H51.5399V1.48H49.5399ZM49.5399 5.8V8.32H51.5399V5.8H49.5399ZM50.5399 9.32H50.9959V7.32H50.5399V9.32ZM50.2543 7.64909L49.7983 8.15309L51.2814 9.49491L51.7374 8.99091L50.2543 7.64909ZM51.5399 8.824C51.5399 7.99441 51.7803 7.49443 52.1438 7.16824L50.808 5.67976C49.9234 6.47357 49.5399 7.57359 49.5399 8.824H51.5399ZM52.1542 7.1588C52.5433 6.79955 53.1376 6.56 54.0679 6.56V4.56C52.7902 4.56 51.6564 4.89645 50.7976 5.68919L52.1542 7.1588ZM54.0679 6.56C55.175 6.56 55.9521 6.89119 56.5148 7.47683L57.957 6.09117C56.9517 5.04481 55.6168 4.56 54.0679 4.56V6.56ZM56.5148 7.47683C57.0786 8.06367 57.4119 8.90396 57.4119 10.12H59.4119C59.4119 8.52004 58.9611 7.13633 57.957 6.09117L56.5148 7.47683ZM57.4119 10.12V19H59.4119V10.12H57.4119ZM58.4119 18H56.2519V20H58.4119V18ZM57.2519 19V10.36H55.2519V19H57.2519ZM57.2519 10.36C57.2519 9.23466 56.9425 8.22041 56.191 7.46889L54.7768 8.88311C55.0493 9.15559 55.2519 9.59734 55.2519 10.36H57.2519ZM56.2127 7.49132C55.4916 6.72366 54.5263 6.384 53.4439 6.384V8.384C54.0894 8.384 54.4842 8.57234 54.755 8.86067L56.2127 7.49132ZM53.4439 6.384C52.3218 6.384 51.3286 6.74434 50.5803 7.53799L52.0355 8.91001C52.3432 8.58366 52.774 8.384 53.4439 8.384V6.384ZM50.5698 7.54923C49.8378 8.34989 49.5399 9.41486 49.5399 10.6H51.5399C51.5399 9.73714 51.7539 9.21811 52.0459 8.89877L50.5698 7.54923ZM49.5399 10.6V19H51.5399V10.6H49.5399ZM50.5399 18H48.3799V20H50.5399V18Z" fill="black" mask="url(#path-1-outside-1_3_3)"/>
</g>
<defs>
<filter id="filter0_d_3_3" x="0.727997" y="0.351999" width="61.6839" height="26.888" filterUnits="userSpaceOnUse" color-interpolation-filters="sRGB">
<feFlood flood-opacity="0" result="BackgroundImageFix"/>
<feColorMatrix in="SourceAlpha" type="matrix" values="0 0 0 0 0 0 0 0 0 0 0 0 0 0 0 0 0 0 127 0" result="hardAlpha"/>
<feOffset dy="4"/>
<feGaussianBlur stdDeviation="2"/>
<feComposite in2="hardAlpha" operator="out"/>
<feColorMatrix type="matrix" values="0 0 0 0 0 0 0 0 0 0 0 0 0 0 0 0 0 0 0.25 0"/>
<feBlend mode="normal" in2="BackgroundImageFix" result="effect1_dropShadow_3_3"/>
<feBlend mode="normal" in="SourceGraphic" in2="effect1_dropShadow_3_3" result="shape"/>
</filter>
</defs>
</svg>
